<?xml version="1.0" encoding="utf-8" standalone="no"?>
<!DOCTYPE svg PUBLIC "-//W3C//DTD SVG 1.1//EN"
  "http://www.w3.org/Graphics/SVG/1.1/DTD/svg11.dtd">
<svg xmlns:xlink="http://www.w3.org/1999/xlink" width="385.2pt" height="360pt" viewBox="0 0 385.2 360" xmlns="http://www.w3.org/2000/svg" version="1.1">
 <metadata>
  <rdf:RDF xmlns:dc="http://purl.org/dc/elements/1.1/" xmlns:cc="http://creativecommons.org/ns#" xmlns:rdf="http://www.w3.org/1999/02/22-rdf-syntax-ns#">
   <cc:Work>
    <dc:type rdf:resource="http://purl.org/dc/dcmitype/StillImage"/>
    <dc:date>2025-08-18T14:29:14.276035</dc:date>
    <dc:format>image/svg+xml</dc:format>
    <dc:creator>
     <cc:Agent>
      <dc:title>Matplotlib v3.10.0, https://matplotlib.org/</dc:title>
     </cc:Agent>
    </dc:creator>
   </cc:Work>
  </rdf:RDF>
 </metadata>
 <defs>
  <style type="text/css">*{stroke-linejoin: round; stroke-linecap: butt}</style>
 </defs>
 <g id="figure_1">
  <g id="patch_1">
   <path d="M 0 360 
L 385.2 360 
L 385.2 0 
L 0 0 
z
" style="fill: #ffffff"/>
  </g>
  <g id="axes_1">
   <g id="patch_2">
    <path d="M 44.618033 328.808 
L 373.644 328.808 
L 373.644 16.416 
L 44.618033 16.416 
z
" style="fill: #ffffff"/>
   </g>
   <g id="matplotlib.axis_1">
    <g id="xtick_1">
     <g id="line2d_1">
      <path d="M 66.140283 328.808 
L 66.140283 16.416 
" clip-path="url(#pd1621e2d24)" style="fill: none; stroke-dasharray: 2.96,1.28; stroke-dashoffset: 0; stroke: #b0b0b0; stroke-width: 0.8"/>
     </g>
     <g id="line2d_2">
      <defs>
       <path id="m754454e7e6" d="M 0 0 
L 0 3.5 
" style="stroke: #000000; stroke-width: 0.8"/>
      </defs>
      <g>
       <use xlink:href="#m754454e7e6" x="66.140283" y="328.808" style="stroke: #000000; stroke-width: 0.8"/>
      </g>
     </g>
     <g id="text_1">
      <!-- $\mathdefault{10^{-2}}$ -->
      <g transform="translate(54.390283 343.406438) scale(0.1 -0.1)">
       <defs>
        <path id="DejaVuSans-31" d="M 794 531 
L 1825 531 
L 1825 4091 
L 703 3866 
L 703 4441 
L 1819 4666 
L 2450 4666 
L 2450 531 
L 3481 531 
L 3481 0 
L 794 0 
L 794 531 
z
" transform="scale(0.015625)"/>
        <path id="DejaVuSans-30" d="M 2034 4250 
Q 1547 4250 1301 3770 
Q 1056 3291 1056 2328 
Q 1056 1369 1301 889 
Q 1547 409 2034 409 
Q 2525 409 2770 889 
Q 3016 1369 3016 2328 
Q 3016 3291 2770 3770 
Q 2525 4250 2034 4250 
z
M 2034 4750 
Q 2819 4750 3233 4129 
Q 3647 3509 3647 2328 
Q 3647 1150 3233 529 
Q 2819 -91 2034 -91 
Q 1250 -91 836 529 
Q 422 1150 422 2328 
Q 422 3509 836 4129 
Q 1250 4750 2034 4750 
z
" transform="scale(0.015625)"/>
        <path id="DejaVuSans-2212" d="M 678 2272 
L 4684 2272 
L 4684 1741 
L 678 1741 
L 678 2272 
z
" transform="scale(0.015625)"/>
        <path id="DejaVuSans-32" d="M 1228 531 
L 3431 531 
L 3431 0 
L 469 0 
L 469 531 
Q 828 903 1448 1529 
Q 2069 2156 2228 2338 
Q 2531 2678 2651 2914 
Q 2772 3150 2772 3378 
Q 2772 3750 2511 3984 
Q 2250 4219 1831 4219 
Q 1534 4219 1204 4116 
Q 875 4013 500 3803 
L 500 4441 
Q 881 4594 1212 4672 
Q 1544 4750 1819 4750 
Q 2544 4750 2975 4387 
Q 3406 4025 3406 3419 
Q 3406 3131 3298 2873 
Q 3191 2616 2906 2266 
Q 2828 2175 2409 1742 
Q 1991 1309 1228 531 
z
" transform="scale(0.015625)"/>
       </defs>
       <use xlink:href="#DejaVuSans-31" transform="translate(0 0.765625)"/>
       <use xlink:href="#DejaVuSans-30" transform="translate(63.623047 0.765625)"/>
       <use xlink:href="#DejaVuSans-2212" transform="translate(128.203125 39.046875) scale(0.7)"/>
       <use xlink:href="#DejaVuSans-32" transform="translate(186.855469 39.046875) scale(0.7)"/>
      </g>
     </g>
    </g>
    <g id="xtick_2">
     <g id="line2d_3">
      <path d="M 137.63565 328.808 
L 137.63565 16.416 
" clip-path="url(#pd1621e2d24)" style="fill: none; stroke-dasharray: 2.96,1.28; stroke-dashoffset: 0; stroke: #b0b0b0; stroke-width: 0.8"/>
     </g>
     <g id="line2d_4">
      <g>
       <use xlink:href="#m754454e7e6" x="137.63565" y="328.808" style="stroke: #000000; stroke-width: 0.8"/>
      </g>
     </g>
     <g id="text_2">
      <!-- $\mathdefault{10^{-1}}$ -->
      <g transform="translate(125.88565 343.406438) scale(0.1 -0.1)">
       <use xlink:href="#DejaVuSans-31" transform="translate(0 0.684375)"/>
       <use xlink:href="#DejaVuSans-30" transform="translate(63.623047 0.684375)"/>
       <use xlink:href="#DejaVuSans-2212" transform="translate(128.203125 38.965625) scale(0.7)"/>
       <use xlink:href="#DejaVuSans-31" transform="translate(186.855469 38.965625) scale(0.7)"/>
      </g>
     </g>
    </g>
    <g id="xtick_3">
     <g id="line2d_5">
      <path d="M 209.131016 328.808 
L 209.131016 16.416 
" clip-path="url(#pd1621e2d24)" style="fill: none; stroke-dasharray: 2.96,1.28; stroke-dashoffset: 0; stroke: #b0b0b0; stroke-width: 0.8"/>
     </g>
     <g id="line2d_6">
      <g>
       <use xlink:href="#m754454e7e6" x="209.131016" y="328.808" style="stroke: #000000; stroke-width: 0.8"/>
      </g>
     </g>
     <g id="text_3">
      <!-- $\mathdefault{10^{0}}$ -->
      <g transform="translate(200.331016 343.406438) scale(0.1 -0.1)">
       <use xlink:href="#DejaVuSans-31" transform="translate(0 0.765625)"/>
       <use xlink:href="#DejaVuSans-30" transform="translate(63.623047 0.765625)"/>
       <use xlink:href="#DejaVuSans-30" transform="translate(128.203125 39.046875) scale(0.7)"/>
      </g>
     </g>
    </g>
    <g id="xtick_4">
     <g id="line2d_7">
      <path d="M 280.626383 328.808 
L 280.626383 16.416 
" clip-path="url(#pd1621e2d24)" style="fill: none; stroke-dasharray: 2.96,1.28; stroke-dashoffset: 0; stroke: #b0b0b0; stroke-width: 0.8"/>
     </g>
     <g id="line2d_8">
      <g>
       <use xlink:href="#m754454e7e6" x="280.626383" y="328.808" style="stroke: #000000; stroke-width: 0.8"/>
      </g>
     </g>
     <g id="text_4">
      <!-- $\mathdefault{10^{1}}$ -->
      <g transform="translate(271.826383 343.406438) scale(0.1 -0.1)">
       <use xlink:href="#DejaVuSans-31" transform="translate(0 0.684375)"/>
       <use xlink:href="#DejaVuSans-30" transform="translate(63.623047 0.684375)"/>
       <use xlink:href="#DejaVuSans-31" transform="translate(128.203125 38.965625) scale(0.7)"/>
      </g>
     </g>
    </g>
    <g id="xtick_5">
     <g id="line2d_9">
      <path d="M 352.12175 328.808 
L 352.12175 16.416 
" clip-path="url(#pd1621e2d24)" style="fill: none; stroke-dasharray: 2.96,1.28; stroke-dashoffset: 0; stroke: #b0b0b0; stroke-width: 0.8"/>
     </g>
     <g id="line2d_10">
      <g>
       <use xlink:href="#m754454e7e6" x="352.12175" y="328.808" style="stroke: #000000; stroke-width: 0.8"/>
      </g>
     </g>
     <g id="text_5">
      <!-- $\mathdefault{10^{2}}$ -->
      <g transform="translate(343.32175 343.406438) scale(0.1 -0.1)">
       <use xlink:href="#DejaVuSans-31" transform="translate(0 0.765625)"/>
       <use xlink:href="#DejaVuSans-30" transform="translate(63.623047 0.765625)"/>
       <use xlink:href="#DejaVuSans-32" transform="translate(128.203125 39.046875) scale(0.7)"/>
      </g>
     </g>
    </g>
    <g id="xtick_6">
     <g id="line2d_11">
      <defs>
       <path id="mb7170fb88a" d="M 0 0 
L 0 2 
" style="stroke: #000000; stroke-width: 0.6"/>
      </defs>
      <g>
       <use xlink:href="#mb7170fb88a" x="44.618033" y="328.808" style="stroke: #000000; stroke-width: 0.6"/>
      </g>
     </g>
    </g>
    <g id="xtick_7">
     <g id="line2d_12">
      <g>
       <use xlink:href="#mb7170fb88a" x="50.279125" y="328.808" style="stroke: #000000; stroke-width: 0.6"/>
      </g>
     </g>
    </g>
    <g id="xtick_8">
     <g id="line2d_13">
      <g>
       <use xlink:href="#mb7170fb88a" x="55.06551" y="328.808" style="stroke: #000000; stroke-width: 0.6"/>
      </g>
     </g>
    </g>
    <g id="xtick_9">
     <g id="line2d_14">
      <g>
       <use xlink:href="#mb7170fb88a" x="59.211666" y="328.808" style="stroke: #000000; stroke-width: 0.6"/>
      </g>
     </g>
    </g>
    <g id="xtick_10">
     <g id="line2d_15">
      <g>
       <use xlink:href="#mb7170fb88a" x="62.868834" y="328.808" style="stroke: #000000; stroke-width: 0.6"/>
      </g>
     </g>
    </g>
    <g id="xtick_11">
     <g id="line2d_16">
      <g>
       <use xlink:href="#mb7170fb88a" x="87.662533" y="328.808" style="stroke: #000000; stroke-width: 0.6"/>
      </g>
     </g>
    </g>
    <g id="xtick_12">
     <g id="line2d_17">
      <g>
       <use xlink:href="#mb7170fb88a" x="100.252242" y="328.808" style="stroke: #000000; stroke-width: 0.6"/>
      </g>
     </g>
    </g>
    <g id="xtick_13">
     <g id="line2d_18">
      <g>
       <use xlink:href="#mb7170fb88a" x="109.184783" y="328.808" style="stroke: #000000; stroke-width: 0.6"/>
      </g>
     </g>
    </g>
    <g id="xtick_14">
     <g id="line2d_19">
      <g>
       <use xlink:href="#mb7170fb88a" x="116.1134" y="328.808" style="stroke: #000000; stroke-width: 0.6"/>
      </g>
     </g>
    </g>
    <g id="xtick_15">
     <g id="line2d_20">
      <g>
       <use xlink:href="#mb7170fb88a" x="121.774492" y="328.808" style="stroke: #000000; stroke-width: 0.6"/>
      </g>
     </g>
    </g>
    <g id="xtick_16">
     <g id="line2d_21">
      <g>
       <use xlink:href="#mb7170fb88a" x="126.560877" y="328.808" style="stroke: #000000; stroke-width: 0.6"/>
      </g>
     </g>
    </g>
    <g id="xtick_17">
     <g id="line2d_22">
      <g>
       <use xlink:href="#mb7170fb88a" x="130.707033" y="328.808" style="stroke: #000000; stroke-width: 0.6"/>
      </g>
     </g>
    </g>
    <g id="xtick_18">
     <g id="line2d_23">
      <g>
       <use xlink:href="#mb7170fb88a" x="134.364201" y="328.808" style="stroke: #000000; stroke-width: 0.6"/>
      </g>
     </g>
    </g>
    <g id="xtick_19">
     <g id="line2d_24">
      <g>
       <use xlink:href="#mb7170fb88a" x="159.1579" y="328.808" style="stroke: #000000; stroke-width: 0.6"/>
      </g>
     </g>
    </g>
    <g id="xtick_20">
     <g id="line2d_25">
      <g>
       <use xlink:href="#mb7170fb88a" x="171.747609" y="328.808" style="stroke: #000000; stroke-width: 0.6"/>
      </g>
     </g>
    </g>
    <g id="xtick_21">
     <g id="line2d_26">
      <g>
       <use xlink:href="#mb7170fb88a" x="180.68015" y="328.808" style="stroke: #000000; stroke-width: 0.6"/>
      </g>
     </g>
    </g>
    <g id="xtick_22">
     <g id="line2d_27">
      <g>
       <use xlink:href="#mb7170fb88a" x="187.608766" y="328.808" style="stroke: #000000; stroke-width: 0.6"/>
      </g>
     </g>
    </g>
    <g id="xtick_23">
     <g id="line2d_28">
      <g>
       <use xlink:href="#mb7170fb88a" x="193.269859" y="328.808" style="stroke: #000000; stroke-width: 0.6"/>
      </g>
     </g>
    </g>
    <g id="xtick_24">
     <g id="line2d_29">
      <g>
       <use xlink:href="#mb7170fb88a" x="198.056244" y="328.808" style="stroke: #000000; stroke-width: 0.6"/>
      </g>
     </g>
    </g>
    <g id="xtick_25">
     <g id="line2d_30">
      <g>
       <use xlink:href="#mb7170fb88a" x="202.2024" y="328.808" style="stroke: #000000; stroke-width: 0.6"/>
      </g>
     </g>
    </g>
    <g id="xtick_26">
     <g id="line2d_31">
      <g>
       <use xlink:href="#mb7170fb88a" x="205.859568" y="328.808" style="stroke: #000000; stroke-width: 0.6"/>
      </g>
     </g>
    </g>
    <g id="xtick_27">
     <g id="line2d_32">
      <g>
       <use xlink:href="#mb7170fb88a" x="230.653266" y="328.808" style="stroke: #000000; stroke-width: 0.6"/>
      </g>
     </g>
    </g>
    <g id="xtick_28">
     <g id="line2d_33">
      <g>
       <use xlink:href="#mb7170fb88a" x="243.242976" y="328.808" style="stroke: #000000; stroke-width: 0.6"/>
      </g>
     </g>
    </g>
    <g id="xtick_29">
     <g id="line2d_34">
      <g>
       <use xlink:href="#mb7170fb88a" x="252.175516" y="328.808" style="stroke: #000000; stroke-width: 0.6"/>
      </g>
     </g>
    </g>
    <g id="xtick_30">
     <g id="line2d_35">
      <g>
       <use xlink:href="#mb7170fb88a" x="259.104133" y="328.808" style="stroke: #000000; stroke-width: 0.6"/>
      </g>
     </g>
    </g>
    <g id="xtick_31">
     <g id="line2d_36">
      <g>
       <use xlink:href="#mb7170fb88a" x="264.765226" y="328.808" style="stroke: #000000; stroke-width: 0.6"/>
      </g>
     </g>
    </g>
    <g id="xtick_32">
     <g id="line2d_37">
      <g>
       <use xlink:href="#mb7170fb88a" x="269.551611" y="328.808" style="stroke: #000000; stroke-width: 0.6"/>
      </g>
     </g>
    </g>
    <g id="xtick_33">
     <g id="line2d_38">
      <g>
       <use xlink:href="#mb7170fb88a" x="273.697766" y="328.808" style="stroke: #000000; stroke-width: 0.6"/>
      </g>
     </g>
    </g>
    <g id="xtick_34">
     <g id="line2d_39">
      <g>
       <use xlink:href="#mb7170fb88a" x="277.354935" y="328.808" style="stroke: #000000; stroke-width: 0.6"/>
      </g>
     </g>
    </g>
    <g id="xtick_35">
     <g id="line2d_40">
      <g>
       <use xlink:href="#mb7170fb88a" x="302.148633" y="328.808" style="stroke: #000000; stroke-width: 0.6"/>
      </g>
     </g>
    </g>
    <g id="xtick_36">
     <g id="line2d_41">
      <g>
       <use xlink:href="#mb7170fb88a" x="314.738342" y="328.808" style="stroke: #000000; stroke-width: 0.6"/>
      </g>
     </g>
    </g>
    <g id="xtick_37">
     <g id="line2d_42">
      <g>
       <use xlink:href="#mb7170fb88a" x="323.670883" y="328.808" style="stroke: #000000; stroke-width: 0.6"/>
      </g>
     </g>
    </g>
    <g id="xtick_38">
     <g id="line2d_43">
      <g>
       <use xlink:href="#mb7170fb88a" x="330.5995" y="328.808" style="stroke: #000000; stroke-width: 0.6"/>
      </g>
     </g>
    </g>
    <g id="xtick_39">
     <g id="line2d_44">
      <g>
       <use xlink:href="#mb7170fb88a" x="336.260592" y="328.808" style="stroke: #000000; stroke-width: 0.6"/>
      </g>
     </g>
    </g>
    <g id="xtick_40">
     <g id="line2d_45">
      <g>
       <use xlink:href="#mb7170fb88a" x="341.046978" y="328.808" style="stroke: #000000; stroke-width: 0.6"/>
      </g>
     </g>
    </g>
    <g id="xtick_41">
     <g id="line2d_46">
      <g>
       <use xlink:href="#mb7170fb88a" x="345.193133" y="328.808" style="stroke: #000000; stroke-width: 0.6"/>
      </g>
     </g>
    </g>
    <g id="xtick_42">
     <g id="line2d_47">
      <g>
       <use xlink:href="#mb7170fb88a" x="348.850301" y="328.808" style="stroke: #000000; stroke-width: 0.6"/>
      </g>
     </g>
    </g>
    <g id="xtick_43">
     <g id="line2d_48">
      <g>
       <use xlink:href="#mb7170fb88a" x="373.644" y="328.808" style="stroke: #000000; stroke-width: 0.6"/>
      </g>
     </g>
    </g>
   </g>
   <g id="matplotlib.axis_2">
    <g id="ytick_1">
     <g id="line2d_49">
      <path d="M 44.618033 328.808 
L 373.644 328.808 
" clip-path="url(#pd1621e2d24)" style="fill: none; stroke-dasharray: 2.96,1.28; stroke-dashoffset: 0; stroke: #b0b0b0; stroke-width: 0.8"/>
     </g>
     <g id="line2d_50">
      <defs>
       <path id="m6c86a734b5" d="M 0 0 
L -3.5 0 
" style="stroke: #000000; stroke-width: 0.8"/>
      </defs>
      <g>
       <use xlink:href="#m6c86a734b5" x="44.618033" y="328.808" style="stroke: #000000; stroke-width: 0.8"/>
      </g>
     </g>
     <g id="text_6">
      <!-- $\mathdefault{10^{-2}}$ -->
      <g transform="translate(14.118033 332.607219) scale(0.1 -0.1)">
       <use xlink:href="#DejaVuSans-31" transform="translate(0 0.765625)"/>
       <use xlink:href="#DejaVuSans-30" transform="translate(63.623047 0.765625)"/>
       <use xlink:href="#DejaVuSans-2212" transform="translate(128.203125 39.046875) scale(0.7)"/>
       <use xlink:href="#DejaVuSans-32" transform="translate(186.855469 39.046875) scale(0.7)"/>
      </g>
     </g>
    </g>
    <g id="ytick_2">
     <g id="line2d_51">
      <path d="M 44.618033 224.677333 
L 373.644 224.677333 
" clip-path="url(#pd1621e2d24)" style="fill: none; stroke-dasharray: 2.96,1.28; stroke-dashoffset: 0; stroke: #b0b0b0; stroke-width: 0.8"/>
     </g>
     <g id="line2d_52">
      <g>
       <use xlink:href="#m6c86a734b5" x="44.618033" y="224.677333" style="stroke: #000000; stroke-width: 0.8"/>
      </g>
     </g>
     <g id="text_7">
      <!-- $\mathdefault{10^{-1}}$ -->
      <g transform="translate(14.118033 228.476552) scale(0.1 -0.1)">
       <use xlink:href="#DejaVuSans-31" transform="translate(0 0.684375)"/>
       <use xlink:href="#DejaVuSans-30" transform="translate(63.623047 0.684375)"/>
       <use xlink:href="#DejaVuSans-2212" transform="translate(128.203125 38.965625) scale(0.7)"/>
       <use xlink:href="#DejaVuSans-31" transform="translate(186.855469 38.965625) scale(0.7)"/>
      </g>
     </g>
    </g>
    <g id="ytick_3">
     <g id="line2d_53">
      <path d="M 44.618033 120.546667 
L 373.644 120.546667 
" clip-path="url(#pd1621e2d24)" style="fill: none; stroke-dasharray: 2.96,1.28; stroke-dashoffset: 0; stroke: #b0b0b0; stroke-width: 0.8"/>
     </g>
     <g id="line2d_54">
      <g>
       <use xlink:href="#m6c86a734b5" x="44.618033" y="120.546667" style="stroke: #000000; stroke-width: 0.8"/>
      </g>
     </g>
     <g id="text_8">
      <!-- $\mathdefault{10^{0}}$ -->
      <g transform="translate(20.018033 124.345885) scale(0.1 -0.1)">
       <use xlink:href="#DejaVuSans-31" transform="translate(0 0.765625)"/>
       <use xlink:href="#DejaVuSans-30" transform="translate(63.623047 0.765625)"/>
       <use xlink:href="#DejaVuSans-30" transform="translate(128.203125 39.046875) scale(0.7)"/>
      </g>
     </g>
    </g>
    <g id="ytick_4">
     <g id="line2d_55">
      <path d="M 44.618033 16.416 
L 373.644 16.416 
" clip-path="url(#pd1621e2d24)" style="fill: none; stroke-dasharray: 2.96,1.28; stroke-dashoffset: 0; stroke: #b0b0b0; stroke-width: 0.8"/>
     </g>
     <g id="line2d_56">
      <g>
       <use xlink:href="#m6c86a734b5" x="44.618033" y="16.416" style="stroke: #000000; stroke-width: 0.8"/>
      </g>
     </g>
     <g id="text_9">
      <!-- $\mathdefault{10^{1}}$ -->
      <g transform="translate(20.018033 20.215219) scale(0.1 -0.1)">
       <use xlink:href="#DejaVuSans-31" transform="translate(0 0.684375)"/>
       <use xlink:href="#DejaVuSans-30" transform="translate(63.623047 0.684375)"/>
       <use xlink:href="#DejaVuSans-31" transform="translate(128.203125 38.965625) scale(0.7)"/>
      </g>
     </g>
    </g>
    <g id="ytick_5">
     <g id="line2d_57">
      <defs>
       <path id="mf04dd8e417" d="M 0 0 
L -2 0 
" style="stroke: #000000; stroke-width: 0.6"/>
      </defs>
      <g>
       <use xlink:href="#mf04dd8e417" x="44.618033" y="297.461546" style="stroke: #000000; stroke-width: 0.6"/>
      </g>
     </g>
    </g>
    <g id="ytick_6">
     <g id="line2d_58">
      <g>
       <use xlink:href="#mf04dd8e417" x="44.618033" y="279.125046" style="stroke: #000000; stroke-width: 0.6"/>
      </g>
     </g>
    </g>
    <g id="ytick_7">
     <g id="line2d_59">
      <g>
       <use xlink:href="#mf04dd8e417" x="44.618033" y="266.115092" style="stroke: #000000; stroke-width: 0.6"/>
      </g>
     </g>
    </g>
    <g id="ytick_8">
     <g id="line2d_60">
      <g>
       <use xlink:href="#mf04dd8e417" x="44.618033" y="256.023787" style="stroke: #000000; stroke-width: 0.6"/>
      </g>
     </g>
    </g>
    <g id="ytick_9">
     <g id="line2d_61">
      <g>
       <use xlink:href="#mf04dd8e417" x="44.618033" y="247.778592" style="stroke: #000000; stroke-width: 0.6"/>
      </g>
     </g>
    </g>
    <g id="ytick_10">
     <g id="line2d_62">
      <g>
       <use xlink:href="#mf04dd8e417" x="44.618033" y="240.807378" style="stroke: #000000; stroke-width: 0.6"/>
      </g>
     </g>
    </g>
    <g id="ytick_11">
     <g id="line2d_63">
      <g>
       <use xlink:href="#mf04dd8e417" x="44.618033" y="234.768638" style="stroke: #000000; stroke-width: 0.6"/>
      </g>
     </g>
    </g>
    <g id="ytick_12">
     <g id="line2d_64">
      <g>
       <use xlink:href="#mf04dd8e417" x="44.618033" y="229.442091" style="stroke: #000000; stroke-width: 0.6"/>
      </g>
     </g>
    </g>
    <g id="ytick_13">
     <g id="line2d_65">
      <g>
       <use xlink:href="#mf04dd8e417" x="44.618033" y="193.330879" style="stroke: #000000; stroke-width: 0.6"/>
      </g>
     </g>
    </g>
    <g id="ytick_14">
     <g id="line2d_66">
      <g>
       <use xlink:href="#mf04dd8e417" x="44.618033" y="174.994379" style="stroke: #000000; stroke-width: 0.6"/>
      </g>
     </g>
    </g>
    <g id="ytick_15">
     <g id="line2d_67">
      <g>
       <use xlink:href="#mf04dd8e417" x="44.618033" y="161.984425" style="stroke: #000000; stroke-width: 0.6"/>
      </g>
     </g>
    </g>
    <g id="ytick_16">
     <g id="line2d_68">
      <g>
       <use xlink:href="#mf04dd8e417" x="44.618033" y="151.893121" style="stroke: #000000; stroke-width: 0.6"/>
      </g>
     </g>
    </g>
    <g id="ytick_17">
     <g id="line2d_69">
      <g>
       <use xlink:href="#mf04dd8e417" x="44.618033" y="143.647925" style="stroke: #000000; stroke-width: 0.6"/>
      </g>
     </g>
    </g>
    <g id="ytick_18">
     <g id="line2d_70">
      <g>
       <use xlink:href="#mf04dd8e417" x="44.618033" y="136.676711" style="stroke: #000000; stroke-width: 0.6"/>
      </g>
     </g>
    </g>
    <g id="ytick_19">
     <g id="line2d_71">
      <g>
       <use xlink:href="#mf04dd8e417" x="44.618033" y="130.637971" style="stroke: #000000; stroke-width: 0.6"/>
      </g>
     </g>
    </g>
    <g id="ytick_20">
     <g id="line2d_72">
      <g>
       <use xlink:href="#mf04dd8e417" x="44.618033" y="125.311425" style="stroke: #000000; stroke-width: 0.6"/>
      </g>
     </g>
    </g>
    <g id="ytick_21">
     <g id="line2d_73">
      <g>
       <use xlink:href="#mf04dd8e417" x="44.618033" y="89.200213" style="stroke: #000000; stroke-width: 0.6"/>
      </g>
     </g>
    </g>
    <g id="ytick_22">
     <g id="line2d_74">
      <g>
       <use xlink:href="#mf04dd8e417" x="44.618033" y="70.863712" style="stroke: #000000; stroke-width: 0.6"/>
      </g>
     </g>
    </g>
    <g id="ytick_23">
     <g id="line2d_75">
      <g>
       <use xlink:href="#mf04dd8e417" x="44.618033" y="57.853758" style="stroke: #000000; stroke-width: 0.6"/>
      </g>
     </g>
    </g>
    <g id="ytick_24">
     <g id="line2d_76">
      <g>
       <use xlink:href="#mf04dd8e417" x="44.618033" y="47.762454" style="stroke: #000000; stroke-width: 0.6"/>
      </g>
     </g>
    </g>
    <g id="ytick_25">
     <g id="line2d_77">
      <g>
       <use xlink:href="#mf04dd8e417" x="44.618033" y="39.517258" style="stroke: #000000; stroke-width: 0.6"/>
      </g>
     </g>
    </g>
    <g id="ytick_26">
     <g id="line2d_78">
      <g>
       <use xlink:href="#mf04dd8e417" x="44.618033" y="32.546044" style="stroke: #000000; stroke-width: 0.6"/>
      </g>
     </g>
    </g>
    <g id="ytick_27">
     <g id="line2d_79">
      <g>
       <use xlink:href="#mf04dd8e417" x="44.618033" y="26.507304" style="stroke: #000000; stroke-width: 0.6"/>
      </g>
     </g>
    </g>
    <g id="ytick_28">
     <g id="line2d_80">
      <g>
       <use xlink:href="#mf04dd8e417" x="44.618033" y="21.180758" style="stroke: #000000; stroke-width: 0.6"/>
      </g>
     </g>
    </g>
   </g>
   <g id="line2d_81">
    <path d="M 241.068918 361 
L 236.434445 321.101814 
L 229.779291 277.352338 
L 223.40804 245.828491 
L 217.243811 224.39888 
L 211.220651 211.401309 
L 205.27956 205.015246 
L 199.365412 203.275077 
L 193.424321 204.373592 
L 187.401161 206.886713 
L 181.236932 209.835766 
L 174.865681 212.638952 
L 168.210527 215.014029 
L 161.178169 216.875182 
L 153.650794 218.247469 
L 145.473454 219.206713 
L 136.433188 219.842908 
L 126.222137 220.241073 
L 114.366898 220.47315 
L 100.078219 220.596028 
L 81.880437 220.652436 
L 56.464891 220.672857 
L 13.279315 220.677487 
" clip-path="url(#pd1621e2d24)" style="fill: none; stroke-dasharray: 5.55,2.4; stroke-dashoffset: 0; stroke: #1f77b4; stroke-width: 1.5"/>
    <defs>
     <path id="m09f11d17b5" d="M 0 3 
C 0.795609 3 1.55874 2.683901 2.12132 2.12132 
C 2.683901 1.55874 3 0.795609 3 0 
C 3 -0.795609 2.683901 -1.55874 2.12132 -2.12132 
C 1.55874 -2.683901 0.795609 -3 0 -3 
C -0.795609 -3 -1.55874 -2.683901 -2.12132 -2.12132 
C -2.683901 -1.55874 -3 -0.795609 -3 0 
C -3 0.795609 -2.683901 1.55874 -2.12132 2.12132 
C -1.55874 2.683901 -0.795609 3 0 3 
z
" style="stroke: #1f77b4"/>
    </defs>
    <g clip-path="url(#pd1621e2d24)">
     <use xlink:href="#m09f11d17b5" x="323.579801" y="25921" style="fill: #1f77b4; stroke: #1f77b4"/>
     <use xlink:href="#m09f11d17b5" x="322.764535" y="23325.095672" style="fill: #1f77b4; stroke: #1f77b4"/>
     <use xlink:href="#m09f11d17b5" x="304.566753" y="7394.077344" style="fill: #1f77b4; stroke: #1f77b4"/>
     <use xlink:href="#m09f11d17b5" x="290.278074" y="3094.070313" style="fill: #1f77b4; stroke: #1f77b4"/>
     <use xlink:href="#m09f11d17b5" x="278.422835" y="1573.543523" style="fill: #1f77b4; stroke: #1f77b4"/>
     <use xlink:href="#m09f11d17b5" x="268.211783" y="934.083056" style="fill: #1f77b4; stroke: #1f77b4"/>
     <use xlink:href="#m09f11d17b5" x="259.171518" y="630.692528" style="fill: #1f77b4; stroke: #1f77b4"/>
     <use xlink:href="#m09f11d17b5" x="250.994178" y="472.84382" style="fill: #1f77b4; stroke: #1f77b4"/>
     <use xlink:href="#m09f11d17b5" x="243.466803" y="381.643401" style="fill: #1f77b4; stroke: #1f77b4"/>
     <use xlink:href="#m09f11d17b5" x="236.434445" y="321.101814" style="fill: #1f77b4; stroke: #1f77b4"/>
     <use xlink:href="#m09f11d17b5" x="229.779291" y="277.352338" style="fill: #1f77b4; stroke: #1f77b4"/>
     <use xlink:href="#m09f11d17b5" x="223.40804" y="245.828491" style="fill: #1f77b4; stroke: #1f77b4"/>
     <use xlink:href="#m09f11d17b5" x="217.243811" y="224.39888" style="fill: #1f77b4; stroke: #1f77b4"/>
     <use xlink:href="#m09f11d17b5" x="211.220651" y="211.401309" style="fill: #1f77b4; stroke: #1f77b4"/>
     <use xlink:href="#m09f11d17b5" x="205.27956" y="205.015246" style="fill: #1f77b4; stroke: #1f77b4"/>
     <use xlink:href="#m09f11d17b5" x="199.365412" y="203.275077" style="fill: #1f77b4; stroke: #1f77b4"/>
     <use xlink:href="#m09f11d17b5" x="193.424321" y="204.373592" style="fill: #1f77b4; stroke: #1f77b4"/>
     <use xlink:href="#m09f11d17b5" x="187.401161" y="206.886713" style="fill: #1f77b4; stroke: #1f77b4"/>
     <use xlink:href="#m09f11d17b5" x="181.236932" y="209.835766" style="fill: #1f77b4; stroke: #1f77b4"/>
     <use xlink:href="#m09f11d17b5" x="174.865681" y="212.638952" style="fill: #1f77b4; stroke: #1f77b4"/>
     <use xlink:href="#m09f11d17b5" x="168.210527" y="215.014029" style="fill: #1f77b4; stroke: #1f77b4"/>
     <use xlink:href="#m09f11d17b5" x="161.178169" y="216.875182" style="fill: #1f77b4; stroke: #1f77b4"/>
     <use xlink:href="#m09f11d17b5" x="153.650794" y="218.247469" style="fill: #1f77b4; stroke: #1f77b4"/>
     <use xlink:href="#m09f11d17b5" x="145.473454" y="219.206713" style="fill: #1f77b4; stroke: #1f77b4"/>
     <use xlink:href="#m09f11d17b5" x="136.433188" y="219.842908" style="fill: #1f77b4; stroke: #1f77b4"/>
     <use xlink:href="#m09f11d17b5" x="126.222137" y="220.241073" style="fill: #1f77b4; stroke: #1f77b4"/>
     <use xlink:href="#m09f11d17b5" x="114.366898" y="220.47315" style="fill: #1f77b4; stroke: #1f77b4"/>
     <use xlink:href="#m09f11d17b5" x="100.078219" y="220.596028" style="fill: #1f77b4; stroke: #1f77b4"/>
     <use xlink:href="#m09f11d17b5" x="81.880437" y="220.652436" style="fill: #1f77b4; stroke: #1f77b4"/>
     <use xlink:href="#m09f11d17b5" x="56.464891" y="220.672857" style="fill: #1f77b4; stroke: #1f77b4"/>
     <use xlink:href="#m09f11d17b5" x="13.279315" y="220.677487" style="fill: #1f77b4; stroke: #1f77b4"/>
    </g>
   </g>
   <g id="line2d_82">
    <path d="M 386.2 63.315947 
L 348.180081 63.315948 
L 322.764535 63.315948 
L 304.566753 63.315948 
L 290.278074 63.315945 
L 278.422835 63.315892 
L 268.211783 63.31559 
L 259.171518 63.316667 
L 250.994178 63.351144 
L 243.466803 63.612288 
L 236.434445 64.483386 
L 229.779291 66.338815 
L 223.40804 69.415428 
L 217.243811 73.765066 
L 211.220651 79.272492 
L 205.27956 85.725586 
L 199.365412 92.90178 
L 193.424321 100.628845 
L 187.401161 108.805928 
L 181.236932 117.398708 
L 174.865681 126.42696 
L 168.210527 135.955042 
L 161.178169 146.089022 
L 153.650794 156.981515 
L 145.473454 168.845855 
L 136.433188 181.983994 
L 126.222137 196.838729 
L 114.366898 214.095691 
L 100.078219 234.901744 
L 81.880437 261.404424 
L 56.464891 298.422124 
L 13.504269 361 
" clip-path="url(#pd1621e2d24)" style="fill: none; stroke-dasharray: 5.55,2.4; stroke-dashoffset: 0; stroke: #ff7f0e; stroke-width: 1.5"/>
    <defs>
     <path id="m2da94ac77c" d="M 0 3 
C 0.795609 3 1.55874 2.683901 2.12132 2.12132 
C 2.683901 1.55874 3 0.795609 3 0 
C 3 -0.795609 2.683901 -1.55874 2.12132 -2.12132 
C 1.55874 -2.683901 0.795609 -3 0 -3 
C -0.795609 -3 -1.55874 -2.683901 -2.12132 -2.12132 
C -2.683901 -1.55874 -3 -0.795609 -3 0 
C -3 0.795609 -2.683901 1.55874 -2.12132 2.12132 
C -1.55874 2.683901 -0.795609 3 0 3 
z
" style="stroke: #ff7f0e"/>
    </defs>
    <g clip-path="url(#pd1621e2d24)">
     <use xlink:href="#m2da94ac77c" x="391.365657" y="63.315947" style="fill: #ff7f0e; stroke: #ff7f0e"/>
     <use xlink:href="#m2da94ac77c" x="348.180081" y="63.315948" style="fill: #ff7f0e; stroke: #ff7f0e"/>
     <use xlink:href="#m2da94ac77c" x="322.764535" y="63.315948" style="fill: #ff7f0e; stroke: #ff7f0e"/>
     <use xlink:href="#m2da94ac77c" x="304.566753" y="63.315948" style="fill: #ff7f0e; stroke: #ff7f0e"/>
     <use xlink:href="#m2da94ac77c" x="290.278074" y="63.315945" style="fill: #ff7f0e; stroke: #ff7f0e"/>
     <use xlink:href="#m2da94ac77c" x="278.422835" y="63.315892" style="fill: #ff7f0e; stroke: #ff7f0e"/>
     <use xlink:href="#m2da94ac77c" x="268.211783" y="63.31559" style="fill: #ff7f0e; stroke: #ff7f0e"/>
     <use xlink:href="#m2da94ac77c" x="259.171518" y="63.316667" style="fill: #ff7f0e; stroke: #ff7f0e"/>
     <use xlink:href="#m2da94ac77c" x="250.994178" y="63.351144" style="fill: #ff7f0e; stroke: #ff7f0e"/>
     <use xlink:href="#m2da94ac77c" x="243.466803" y="63.612288" style="fill: #ff7f0e; stroke: #ff7f0e"/>
     <use xlink:href="#m2da94ac77c" x="236.434445" y="64.483386" style="fill: #ff7f0e; stroke: #ff7f0e"/>
     <use xlink:href="#m2da94ac77c" x="229.779291" y="66.338815" style="fill: #ff7f0e; stroke: #ff7f0e"/>
     <use xlink:href="#m2da94ac77c" x="223.40804" y="69.415428" style="fill: #ff7f0e; stroke: #ff7f0e"/>
     <use xlink:href="#m2da94ac77c" x="217.243811" y="73.765066" style="fill: #ff7f0e; stroke: #ff7f0e"/>
     <use xlink:href="#m2da94ac77c" x="211.220651" y="79.272492" style="fill: #ff7f0e; stroke: #ff7f0e"/>
     <use xlink:href="#m2da94ac77c" x="205.27956" y="85.725586" style="fill: #ff7f0e; stroke: #ff7f0e"/>
     <use xlink:href="#m2da94ac77c" x="199.365412" y="92.90178" style="fill: #ff7f0e; stroke: #ff7f0e"/>
     <use xlink:href="#m2da94ac77c" x="193.424321" y="100.628845" style="fill: #ff7f0e; stroke: #ff7f0e"/>
     <use xlink:href="#m2da94ac77c" x="187.401161" y="108.805928" style="fill: #ff7f0e; stroke: #ff7f0e"/>
     <use xlink:href="#m2da94ac77c" x="181.236932" y="117.398708" style="fill: #ff7f0e; stroke: #ff7f0e"/>
     <use xlink:href="#m2da94ac77c" x="174.865681" y="126.42696" style="fill: #ff7f0e; stroke: #ff7f0e"/>
     <use xlink:href="#m2da94ac77c" x="168.210527" y="135.955042" style="fill: #ff7f0e; stroke: #ff7f0e"/>
     <use xlink:href="#m2da94ac77c" x="161.178169" y="146.089022" style="fill: #ff7f0e; stroke: #ff7f0e"/>
     <use xlink:href="#m2da94ac77c" x="153.650794" y="156.981515" style="fill: #ff7f0e; stroke: #ff7f0e"/>
     <use xlink:href="#m2da94ac77c" x="145.473454" y="168.845855" style="fill: #ff7f0e; stroke: #ff7f0e"/>
     <use xlink:href="#m2da94ac77c" x="136.433188" y="181.983994" style="fill: #ff7f0e; stroke: #ff7f0e"/>
     <use xlink:href="#m2da94ac77c" x="126.222137" y="196.838729" style="fill: #ff7f0e; stroke: #ff7f0e"/>
     <use xlink:href="#m2da94ac77c" x="114.366898" y="214.095691" style="fill: #ff7f0e; stroke: #ff7f0e"/>
     <use xlink:href="#m2da94ac77c" x="100.078219" y="234.901744" style="fill: #ff7f0e; stroke: #ff7f0e"/>
     <use xlink:href="#m2da94ac77c" x="81.880437" y="261.404424" style="fill: #ff7f0e; stroke: #ff7f0e"/>
     <use xlink:href="#m2da94ac77c" x="56.464891" y="298.422124" style="fill: #ff7f0e; stroke: #ff7f0e"/>
     <use xlink:href="#m2da94ac77c" x="13.279315" y="361.327676" style="fill: #ff7f0e; stroke: #ff7f0e"/>
    </g>
   </g>
   <g id="line2d_83">
    <path d="M 386.2 321.211139 
L 348.180081 265.836369 
L 322.764535 228.819456 
L 304.566753 202.314981 
L 290.278074 181.503985 
L 278.422835 164.237163 
L 268.211783 149.364798 
L 259.171518 136.199022 
L 250.994178 124.323472 
L 243.466803 113.62124 
L 236.434445 104.249938 
L 229.779291 96.412352 
L 223.40804 90.209446 
L 217.243811 85.581087 
L 211.220651 82.315976 
L 205.27956 80.116065 
L 199.365412 78.678496 
L 193.424321 77.752556 
L 187.401161 77.157102 
L 181.236932 76.771886 
L 174.865681 76.520618 
L 168.210527 76.355685 
L 161.178169 76.247265 
L 153.650794 76.176382 
L 145.473454 76.130695 
L 136.433188 76.101982 
L 126.222137 76.084653 
L 114.366898 76.074847 
L 100.078219 76.069906 
L 81.880437 76.06811 
L 56.464891 76.068898 
L 13.279315 76.076069 
" clip-path="url(#pd1621e2d24)" style="fill: none; stroke-dasharray: 5.55,2.4; stroke-dashoffset: 0; stroke: #2ca02c; stroke-width: 1.5"/>
    <defs>
     <path id="m840a5f70a5" d="M 0 3 
C 0.795609 3 1.55874 2.683901 2.12132 2.12132 
C 2.683901 1.55874 3 0.795609 3 0 
C 3 -0.795609 2.683901 -1.55874 2.12132 -2.12132 
C 1.55874 -2.683901 0.795609 -3 0 -3 
C -0.795609 -3 -1.55874 -2.683901 -2.12132 -2.12132 
C -2.683901 -1.55874 -3 -0.795609 -3 0 
C -3 0.795609 -2.683901 1.55874 -2.12132 2.12132 
C -1.55874 2.683901 -0.795609 3 0 3 
z
" style="stroke: #2ca02c"/>
    </defs>
    <g clip-path="url(#pd1621e2d24)">
     <use xlink:href="#m840a5f70a5" x="391.365657" y="328.73475" style="fill: #2ca02c; stroke: #2ca02c"/>
     <use xlink:href="#m840a5f70a5" x="348.180081" y="265.836369" style="fill: #2ca02c; stroke: #2ca02c"/>
     <use xlink:href="#m840a5f70a5" x="322.764535" y="228.819456" style="fill: #2ca02c; stroke: #2ca02c"/>
     <use xlink:href="#m840a5f70a5" x="304.566753" y="202.314981" style="fill: #2ca02c; stroke: #2ca02c"/>
     <use xlink:href="#m840a5f70a5" x="290.278074" y="181.503985" style="fill: #2ca02c; stroke: #2ca02c"/>
     <use xlink:href="#m840a5f70a5" x="278.422835" y="164.237163" style="fill: #2ca02c; stroke: #2ca02c"/>
     <use xlink:href="#m840a5f70a5" x="268.211783" y="149.364798" style="fill: #2ca02c; stroke: #2ca02c"/>
     <use xlink:href="#m840a5f70a5" x="259.171518" y="136.199022" style="fill: #2ca02c; stroke: #2ca02c"/>
     <use xlink:href="#m840a5f70a5" x="250.994178" y="124.323472" style="fill: #2ca02c; stroke: #2ca02c"/>
     <use xlink:href="#m840a5f70a5" x="243.466803" y="113.62124" style="fill: #2ca02c; stroke: #2ca02c"/>
     <use xlink:href="#m840a5f70a5" x="236.434445" y="104.249938" style="fill: #2ca02c; stroke: #2ca02c"/>
     <use xlink:href="#m840a5f70a5" x="229.779291" y="96.412352" style="fill: #2ca02c; stroke: #2ca02c"/>
     <use xlink:href="#m840a5f70a5" x="223.40804" y="90.209446" style="fill: #2ca02c; stroke: #2ca02c"/>
     <use xlink:href="#m840a5f70a5" x="217.243811" y="85.581087" style="fill: #2ca02c; stroke: #2ca02c"/>
     <use xlink:href="#m840a5f70a5" x="211.220651" y="82.315976" style="fill: #2ca02c; stroke: #2ca02c"/>
     <use xlink:href="#m840a5f70a5" x="205.27956" y="80.116065" style="fill: #2ca02c; stroke: #2ca02c"/>
     <use xlink:href="#m840a5f70a5" x="199.365412" y="78.678496" style="fill: #2ca02c; stroke: #2ca02c"/>
     <use xlink:href="#m840a5f70a5" x="193.424321" y="77.752556" style="fill: #2ca02c; stroke: #2ca02c"/>
     <use xlink:href="#m840a5f70a5" x="187.401161" y="77.157102" style="fill: #2ca02c; stroke: #2ca02c"/>
     <use xlink:href="#m840a5f70a5" x="181.236932" y="76.771886" style="fill: #2ca02c; stroke: #2ca02c"/>
     <use xlink:href="#m840a5f70a5" x="174.865681" y="76.520618" style="fill: #2ca02c; stroke: #2ca02c"/>
     <use xlink:href="#m840a5f70a5" x="168.210527" y="76.355685" style="fill: #2ca02c; stroke: #2ca02c"/>
     <use xlink:href="#m840a5f70a5" x="161.178169" y="76.247265" style="fill: #2ca02c; stroke: #2ca02c"/>
     <use xlink:href="#m840a5f70a5" x="153.650794" y="76.176382" style="fill: #2ca02c; stroke: #2ca02c"/>
     <use xlink:href="#m840a5f70a5" x="145.473454" y="76.130695" style="fill: #2ca02c; stroke: #2ca02c"/>
     <use xlink:href="#m840a5f70a5" x="136.433188" y="76.101982" style="fill: #2ca02c; stroke: #2ca02c"/>
     <use xlink:href="#m840a5f70a5" x="126.222137" y="76.084653" style="fill: #2ca02c; stroke: #2ca02c"/>
     <use xlink:href="#m840a5f70a5" x="114.366898" y="76.074847" style="fill: #2ca02c; stroke: #2ca02c"/>
     <use xlink:href="#m840a5f70a5" x="100.078219" y="76.069906" style="fill: #2ca02c; stroke: #2ca02c"/>
     <use xlink:href="#m840a5f70a5" x="81.880437" y="76.06811" style="fill: #2ca02c; stroke: #2ca02c"/>
     <use xlink:href="#m840a5f70a5" x="56.464891" y="76.068898" style="fill: #2ca02c; stroke: #2ca02c"/>
     <use xlink:href="#m840a5f70a5" x="13.279315" y="76.076069" style="fill: #2ca02c; stroke: #2ca02c"/>
    </g>
   </g>
   <g id="patch_3">
    <path d="M 44.618033 328.808 
L 44.618033 16.416 
" style="fill: none; stroke: #000000; stroke-width: 0.8; stroke-linejoin: miter; stroke-linecap: square"/>
   </g>
   <g id="patch_4">
    <path d="M 373.644 328.808 
L 373.644 16.416 
" style="fill: none; stroke: #000000; stroke-width: 0.8; stroke-linejoin: miter; stroke-linecap: square"/>
   </g>
   <g id="patch_5">
    <path d="M 44.618033 328.808 
L 373.644 328.808 
" style="fill: none; stroke: #000000; stroke-width: 0.8; stroke-linejoin: miter; stroke-linecap: square"/>
   </g>
   <g id="patch_6">
    <path d="M 44.618033 16.416 
L 373.644 16.416 
" style="fill: none; stroke: #000000; stroke-width: 0.8; stroke-linejoin: miter; stroke-linecap: square"/>
   </g>
   <g id="legend_1">
    <g id="patch_7">
     <path d="M 51.618033 72.292563 
L 100.118033 72.292563 
Q 102.118033 72.292563 102.118033 70.292563 
L 102.118033 23.416 
Q 102.118033 21.416 100.118033 21.416 
L 51.618033 21.416 
Q 49.618033 21.416 49.618033 23.416 
L 49.618033 70.292563 
Q 49.618033 72.292563 51.618033 72.292563 
z
" style="fill: #ffffff; opacity: 0.8; stroke: #cccccc; stroke-linejoin: miter"/>
    </g>
    <g id="line2d_84">
     <path d="M 53.618033 29.514438 
L 63.618033 29.514438 
L 73.618033 29.514438 
" style="fill: none; stroke-dasharray: 5.55,2.4; stroke-dashoffset: 0; stroke: #1f77b4; stroke-width: 1.5"/>
     <g>
      <use xlink:href="#m09f11d17b5" x="63.618033" y="29.514438" style="fill: #1f77b4; stroke: #1f77b4"/>
     </g>
    </g>
    <g id="text_10">
     <!-- $\rho_{00}$ -->
     <g transform="translate(81.618033 33.014438) scale(0.1 -0.1)">
      <defs>
       <path id="DejaVuSans-Oblique-3c1" d="M 1203 2875 
Q 1453 3194 1981 3475 
Q 2188 3584 2756 3584 
Q 3394 3584 3694 3078 
Q 3994 2572 3834 1747 
Q 3672 922 3175 415 
Q 2678 -91 2041 -91 
Q 1656 -91 1409 63 
Q 1163 213 1044 525 
L 681 -1331 
L 103 -1331 
L 697 1716 
Q 838 2438 1203 2875 
z
M 3238 1747 
Q 3359 2381 3169 2744 
Q 2978 3103 2522 3103 
Q 2066 3103 1734 2744 
Q 1403 2381 1281 1747 
Q 1156 1113 1347 750 
Q 1538 391 1994 391 
Q 2450 391 2781 750 
Q 3113 1113 3238 1747 
z
" transform="scale(0.015625)"/>
      </defs>
      <use xlink:href="#DejaVuSans-Oblique-3c1"/>
      <use xlink:href="#DejaVuSans-30" transform="translate(63.476562 -16.40625) scale(0.7)"/>
      <use xlink:href="#DejaVuSans-30" transform="translate(108.012695 -16.40625) scale(0.7)"/>
     </g>
    </g>
    <g id="line2d_85">
     <path d="M 53.618033 44.212875 
L 63.618033 44.212875 
L 73.618033 44.212875 
" style="fill: none; stroke-dasharray: 5.55,2.4; stroke-dashoffset: 0; stroke: #ff7f0e; stroke-width: 1.5"/>
     <g>
      <use xlink:href="#m2da94ac77c" x="63.618033" y="44.212875" style="fill: #ff7f0e; stroke: #ff7f0e"/>
     </g>
    </g>
    <g id="text_11">
     <!-- $U_{00}$ -->
     <g transform="translate(81.618033 47.712875) scale(0.1 -0.1)">
      <defs>
       <path id="DejaVuSans-Oblique-55" d="M 991 4666 
L 1625 4666 
L 1075 1831 
Q 1041 1641 1027 1517 
Q 1013 1394 1013 1300 
Q 1013 869 1253 645 
Q 1494 422 1959 422 
Q 2563 422 2898 753 
Q 3234 1084 3378 1831 
L 3928 4666 
L 4563 4666 
L 4000 1753 
Q 3816 809 3300 359 
Q 2784 -91 1888 -91 
Q 1188 -91 780 261 
Q 372 613 372 1216 
Q 372 1325 387 1461 
Q 403 1597 434 1753 
L 991 4666 
z
" transform="scale(0.015625)"/>
      </defs>
      <use xlink:href="#DejaVuSans-Oblique-55" transform="translate(0 0.09375)"/>
      <use xlink:href="#DejaVuSans-30" transform="translate(73.193359 -16.3125) scale(0.7)"/>
      <use xlink:href="#DejaVuSans-30" transform="translate(117.729492 -16.3125) scale(0.7)"/>
     </g>
    </g>
    <g id="line2d_86">
     <path d="M 53.618033 62.092563 
L 63.618033 62.092563 
L 73.618033 62.092563 
" style="fill: none; stroke-dasharray: 5.55,2.4; stroke-dashoffset: 0; stroke: #2ca02c; stroke-width: 1.5"/>
     <g>
      <use xlink:href="#m840a5f70a5" x="63.618033" y="62.092563" style="fill: #2ca02c; stroke: #2ca02c"/>
     </g>
    </g>
    <g id="text_12">
     <!-- $\frac{U_{00}}{r}$ -->
     <g transform="translate(81.618033 65.592563) scale(0.1 -0.1)">
      <defs>
       <path id="DejaVuSans-Oblique-72" d="M 2853 2969 
Q 2766 3016 2653 3041 
Q 2541 3066 2413 3066 
Q 1953 3066 1609 2717 
Q 1266 2369 1153 1784 
L 800 0 
L 225 0 
L 909 3500 
L 1484 3500 
L 1375 2956 
Q 1603 3259 1920 3421 
Q 2238 3584 2597 3584 
Q 2691 3584 2781 3573 
Q 2872 3563 2963 3538 
L 2853 2969 
z
" transform="scale(0.015625)"/>
      </defs>
      <use xlink:href="#DejaVuSans-Oblique-55" transform="translate(0 56.965625) scale(0.7)"/>
      <use xlink:href="#DejaVuSans-30" transform="translate(51.235352 45.48125) scale(0.49)"/>
      <use xlink:href="#DejaVuSans-30" transform="translate(82.410645 45.48125) scale(0.49)"/>
      <use xlink:href="#DejaVuSans-Oblique-72" transform="translate(43 -25.665469) scale(0.7)"/>
      <path d="M 0 19.784531 
L 0 26.034531 
L 115.5 26.034531 
L 115.5 19.784531 
L 0 19.784531 
z
"/>
     </g>
    </g>
   </g>
  </g>
 </g>
 <defs>
  <clipPath id="pd1621e2d24">
   <rect x="44.618033" y="16.416" width="329.025967" height="312.392"/>
  </clipPath>
 </defs>
</svg>
