<?xml version="1.0" encoding="utf-8" standalone="no"?>
<!DOCTYPE svg PUBLIC "-//W3C//DTD SVG 1.1//EN"
  "http://www.w3.org/Graphics/SVG/1.1/DTD/svg11.dtd">
<svg xmlns:xlink="http://www.w3.org/1999/xlink" width="576pt" height="432pt" viewBox="0 0 576 432" xmlns="http://www.w3.org/2000/svg" version="1.1">
 <metadata>
  <rdf:RDF xmlns:dc="http://purl.org/dc/elements/1.1/" xmlns:cc="http://creativecommons.org/ns#" xmlns:rdf="http://www.w3.org/1999/02/22-rdf-syntax-ns#">
   <cc:Work>
    <dc:type rdf:resource="http://purl.org/dc/dcmitype/StillImage"/>
    <dc:date>2026-01-09T16:05:25.844917</dc:date>
    <dc:format>image/svg+xml</dc:format>
    <dc:creator>
     <cc:Agent>
      <dc:title>Matplotlib v3.10.1, https://matplotlib.org/</dc:title>
     </cc:Agent>
    </dc:creator>
   </cc:Work>
  </rdf:RDF>
 </metadata>
 <defs>
  <style type="text/css">*{stroke-linejoin: round; stroke-linecap: butt}</style>
 </defs>
 <g id="figure_1">
  <g id="patch_1">
   <path d="M 0 432 
L 576 432 
L 576 0 
L 0 0 
z
" style="fill: #ffffff"/>
  </g>
  <g id="axes_1">
   <g id="patch_2">
    <path d="M 32.56 404.12 
L 565.2 404.12 
L 565.2 10.8 
L 32.56 10.8 
z
" style="fill: #ffffff"/>
   </g>
   <g id="PathCollection_1">
    <defs>
     <path id="m1d72cbbde3" d="M -0 4.242641 
L 4.242641 0 
L 0 -4.242641 
L -4.242641 -0 
z
" style="stroke: #ff0000"/>
    </defs>
    <g clip-path="url(#p7af51dbf59)">
     <use xlink:href="#m1d72cbbde3" x="510.049096" y="279.320673" style="fill: #ff0000; stroke: #ff0000"/>
     <use xlink:href="#m1d72cbbde3" x="169.993633" y="271.854728" style="fill: #ff0000; stroke: #ff0000"/>
     <use xlink:href="#m1d72cbbde3" x="107.020424" y="278.959255" style="fill: #ff0000; stroke: #ff0000"/>
     <use xlink:href="#m1d72cbbde3" x="84.979829" y="265.072313" style="fill: #ff0000; stroke: #ff0000"/>
     <use xlink:href="#m1d72cbbde3" x="74.778215" y="266.191308" style="fill: #ff0000; stroke: #ff0000"/>
     <use xlink:href="#m1d72cbbde3" x="69.236631" y="269.091555" style="fill: #ff0000; stroke: #ff0000"/>
     <use xlink:href="#m1d72cbbde3" x="65.895266" y="271.464204" style="fill: #ff0000; stroke: #ff0000"/>
     <use xlink:href="#m1d72cbbde3" x="63.726628" y="273.197168" style="fill: #ff0000; stroke: #ff0000"/>
     <use xlink:href="#m1d72cbbde3" x="62.239855" y="274.453473" style="fill: #ff0000; stroke: #ff0000"/>
     <use xlink:href="#m1d72cbbde3" x="61.176413" y="275.379048" style="fill: #ff0000; stroke: #ff0000"/>
     <use xlink:href="#m1d72cbbde3" x="60.389625" y="276.07554" style="fill: #ff0000; stroke: #ff0000"/>
     <use xlink:href="#m1d72cbbde3" x="59.791248" y="276.610724" style="fill: #ff0000; stroke: #ff0000"/>
     <use xlink:href="#m1d72cbbde3" x="59.325611" y="277.029923" style="fill: #ff0000; stroke: #ff0000"/>
     <use xlink:href="#m1d72cbbde3" x="58.956182" y="277.363948" style="fill: #ff0000; stroke: #ff0000"/>
     <use xlink:href="#m1d72cbbde3" x="58.658188" y="277.634179" style="fill: #ff0000; stroke: #ff0000"/>
     <use xlink:href="#m1d72cbbde3" x="58.414344" y="277.85576" style="fill: #ff0000; stroke: #ff0000"/>
     <use xlink:href="#m1d72cbbde3" x="58.212294" y="278.039633" style="fill: #ff0000; stroke: #ff0000"/>
     <use xlink:href="#m1d72cbbde3" x="58.043017" y="278.193846" style="fill: #ff0000; stroke: #ff0000"/>
     <use xlink:href="#m1d72cbbde3" x="57.899801" y="278.324421" style="fill: #ff0000; stroke: #ff0000"/>
     <use xlink:href="#m1d72cbbde3" x="57.77757" y="278.435931" style="fill: #ff0000; stroke: #ff0000"/>
     <use xlink:href="#m1d72cbbde3" x="57.672426" y="278.531896" style="fill: #ff0000; stroke: #ff0000"/>
     <use xlink:href="#m1d72cbbde3" x="57.581336" y="278.615063" style="fill: #ff0000; stroke: #ff0000"/>
     <use xlink:href="#m1d72cbbde3" x="57.501913" y="278.687598" style="fill: #ff0000; stroke: #ff0000"/>
     <use xlink:href="#m1d72cbbde3" x="57.432255" y="278.751229" style="fill: #ff0000; stroke: #ff0000"/>
     <use xlink:href="#m1d72cbbde3" x="57.370835" y="278.807344" style="fill: #ff0000; stroke: #ff0000"/>
     <use xlink:href="#m1d72cbbde3" x="57.316412" y="278.857074" style="fill: #ff0000; stroke: #ff0000"/>
     <use xlink:href="#m1d72cbbde3" x="57.267971" y="278.901342" style="fill: #ff0000; stroke: #ff0000"/>
     <use xlink:href="#m1d72cbbde3" x="57.224676" y="278.940912" style="fill: #ff0000; stroke: #ff0000"/>
     <use xlink:href="#m1d72cbbde3" x="57.18583" y="278.976417" style="fill: #ff0000; stroke: #ff0000"/>
     <use xlink:href="#m1d72cbbde3" x="57.150855" y="279.008387" style="fill: #ff0000; stroke: #ff0000"/>
     <use xlink:href="#m1d72cbbde3" x="57.119259" y="279.037269" style="fill: #ff0000; stroke: #ff0000"/>
     <use xlink:href="#m1d72cbbde3" x="57.090631" y="279.063439" style="fill: #ff0000; stroke: #ff0000"/>
     <use xlink:href="#m1d72cbbde3" x="57.064617" y="279.08722" style="fill: #ff0000; stroke: #ff0000"/>
     <use xlink:href="#m1d72cbbde3" x="57.040918" y="279.108886" style="fill: #ff0000; stroke: #ff0000"/>
     <use xlink:href="#m1d72cbbde3" x="57.019275" y="279.128673" style="fill: #ff0000; stroke: #ff0000"/>
     <use xlink:href="#m1d72cbbde3" x="56.999465" y="279.146785" style="fill: #ff0000; stroke: #ff0000"/>
     <use xlink:href="#m1d72cbbde3" x="56.981295" y="279.163397" style="fill: #ff0000; stroke: #ff0000"/>
     <use xlink:href="#m1d72cbbde3" x="56.964596" y="279.178664" style="fill: #ff0000; stroke: #ff0000"/>
     <use xlink:href="#m1d72cbbde3" x="56.949223" y="279.192719" style="fill: #ff0000; stroke: #ff0000"/>
     <use xlink:href="#m1d72cbbde3" x="56.935047" y="279.20568" style="fill: #ff0000; stroke: #ff0000"/>
     <use xlink:href="#m1d72cbbde3" x="56.921955" y="279.217651" style="fill: #ff0000; stroke: #ff0000"/>
     <use xlink:href="#m1d72cbbde3" x="56.909848" y="279.228721" style="fill: #ff0000; stroke: #ff0000"/>
     <use xlink:href="#m1d72cbbde3" x="56.898637" y="279.238971" style="fill: #ff0000; stroke: #ff0000"/>
     <use xlink:href="#m1d72cbbde3" x="56.888245" y="279.248473" style="fill: #ff0000; stroke: #ff0000"/>
     <use xlink:href="#m1d72cbbde3" x="56.878602" y="279.25729" style="fill: #ff0000; stroke: #ff0000"/>
     <use xlink:href="#m1d72cbbde3" x="56.869646" y="279.265478" style="fill: #ff0000; stroke: #ff0000"/>
     <use xlink:href="#m1d72cbbde3" x="56.861323" y="279.273088" style="fill: #ff0000; stroke: #ff0000"/>
     <use xlink:href="#m1d72cbbde3" x="56.853583" y="279.280165" style="fill: #ff0000; stroke: #ff0000"/>
     <use xlink:href="#m1d72cbbde3" x="56.846382" y="279.286749" style="fill: #ff0000; stroke: #ff0000"/>
     <use xlink:href="#m1d72cbbde3" x="56.83968" y="279.292877" style="fill: #ff0000; stroke: #ff0000"/>
     <use xlink:href="#m1d72cbbde3" x="56.833441" y="279.298582" style="fill: #ff0000; stroke: #ff0000"/>
     <use xlink:href="#m1d72cbbde3" x="56.827634" y="279.303892" style="fill: #ff0000; stroke: #ff0000"/>
     <use xlink:href="#m1d72cbbde3" x="56.822229" y="279.308834" style="fill: #ff0000; stroke: #ff0000"/>
     <use xlink:href="#m1d72cbbde3" x="56.817199" y="279.313433" style="fill: #ff0000; stroke: #ff0000"/>
     <use xlink:href="#m1d72cbbde3" x="56.812522" y="279.317709" style="fill: #ff0000; stroke: #ff0000"/>
     <use xlink:href="#m1d72cbbde3" x="56.808176" y="279.321683" style="fill: #ff0000; stroke: #ff0000"/>
     <use xlink:href="#m1d72cbbde3" x="56.804141" y="279.325373" style="fill: #ff0000; stroke: #ff0000"/>
     <use xlink:href="#m1d72cbbde3" x="56.800399" y="279.328794" style="fill: #ff0000; stroke: #ff0000"/>
     <use xlink:href="#m1d72cbbde3" x="56.796936" y="279.33196" style="fill: #ff0000; stroke: #ff0000"/>
     <use xlink:href="#m1d72cbbde3" x="56.793736" y="279.334886" style="fill: #ff0000; stroke: #ff0000"/>
     <use xlink:href="#m1d72cbbde3" x="56.790787" y="279.337583" style="fill: #ff0000; stroke: #ff0000"/>
     <use xlink:href="#m1d72cbbde3" x="56.788076" y="279.340061" style="fill: #ff0000; stroke: #ff0000"/>
     <use xlink:href="#m1d72cbbde3" x="56.785594" y="279.342331" style="fill: #ff0000; stroke: #ff0000"/>
     <use xlink:href="#m1d72cbbde3" x="56.78333" y="279.344401" style="fill: #ff0000; stroke: #ff0000"/>
     <use xlink:href="#m1d72cbbde3" x="56.781276" y="279.346279" style="fill: #ff0000; stroke: #ff0000"/>
     <use xlink:href="#m1d72cbbde3" x="56.779425" y="279.347972" style="fill: #ff0000; stroke: #ff0000"/>
     <use xlink:href="#m1d72cbbde3" x="56.777769" y="279.349486" style="fill: #ff0000; stroke: #ff0000"/>
     <use xlink:href="#m1d72cbbde3" x="56.776302" y="279.350827" style="fill: #ff0000; stroke: #ff0000"/>
     <use xlink:href="#m1d72cbbde3" x="56.775021" y="279.351999" style="fill: #ff0000; stroke: #ff0000"/>
     <use xlink:href="#m1d72cbbde3" x="56.773919" y="279.353006" style="fill: #ff0000; stroke: #ff0000"/>
     <use xlink:href="#m1d72cbbde3" x="56.772992" y="279.353853" style="fill: #ff0000; stroke: #ff0000"/>
     <use xlink:href="#m1d72cbbde3" x="56.772239" y="279.354542" style="fill: #ff0000; stroke: #ff0000"/>
     <use xlink:href="#m1d72cbbde3" x="56.771656" y="279.355075" style="fill: #ff0000; stroke: #ff0000"/>
     <use xlink:href="#m1d72cbbde3" x="56.77124" y="279.355455" style="fill: #ff0000; stroke: #ff0000"/>
     <use xlink:href="#m1d72cbbde3" x="56.770992" y="279.355682" style="fill: #ff0000; stroke: #ff0000"/>
    </g>
   </g>
   <g id="PathCollection_2">
    <defs>
     <path id="C0_0_af2bc63d30" d="M 0 3 
C 0.795609 3 1.55874 2.683901 2.12132 2.12132 
C 2.683901 1.55874 3 0.795609 3 -0 
C 3 -0.795609 2.683901 -1.55874 2.12132 -2.12132 
C 1.55874 -2.683901 0.795609 -3 0 -3 
C -0.795609 -3 -1.55874 -2.683901 -2.12132 -2.12132 
C -2.683901 -1.55874 -3 -0.795609 -3 0 
C -3 0.795609 -2.683901 1.55874 -2.12132 2.12132 
C -1.55874 2.683901 -0.795609 3 0 3 
z
"/>
    </defs>
    <g clip-path="url(#p7af51dbf59)">
     <use xlink:href="#C0_0_af2bc63d30" x="56.770909" y="279.355758" style="fill: none; stroke: #000123"/>
    </g>
    <g clip-path="url(#p7af51dbf59)">
     <use xlink:href="#C0_0_af2bc63d30" x="68.937195" y="269.286846" style="fill: none; stroke: #000123"/>
    </g>
    <g clip-path="url(#p7af51dbf59)">
     <use xlink:href="#C0_0_af2bc63d30" x="81.103481" y="264.753873" style="fill: none; stroke: #000123"/>
    </g>
    <g clip-path="url(#p7af51dbf59)">
     <use xlink:href="#C0_0_af2bc63d30" x="93.269767" y="268.862291" style="fill: none; stroke: #000123"/>
    </g>
    <g clip-path="url(#p7af51dbf59)">
     <use xlink:href="#C0_0_af2bc63d30" x="105.436053" y="277.852455" style="fill: none; stroke: #000123"/>
    </g>
    <g clip-path="url(#p7af51dbf59)">
     <use xlink:href="#C0_0_af2bc63d30" x="117.602339" y="284.534827" style="fill: none; stroke: #000123"/>
    </g>
    <g clip-path="url(#p7af51dbf59)">
     <use xlink:href="#C0_0_af2bc63d30" x="129.768625" y="287.209993" style="fill: none; stroke: #000123"/>
    </g>
    <g clip-path="url(#p7af51dbf59)">
     <use xlink:href="#C0_0_af2bc63d30" x="141.934911" y="286.2202" style="fill: none; stroke: #000123"/>
    </g>
    <g clip-path="url(#p7af51dbf59)">
     <use xlink:href="#C0_0_af2bc63d30" x="154.101197" y="281.910832" style="fill: none; stroke: #000123"/>
    </g>
    <g clip-path="url(#p7af51dbf59)">
     <use xlink:href="#C0_0_af2bc63d30" x="166.267483" y="274.627278" style="fill: none; stroke: #000123"/>
    </g>
    <g clip-path="url(#p7af51dbf59)">
     <use xlink:href="#C0_0_af2bc63d30" x="178.433769" y="264.714923" style="fill: none; stroke: #000123"/>
    </g>
    <g clip-path="url(#p7af51dbf59)">
     <use xlink:href="#C0_0_af2bc63d30" x="190.600055" y="252.519155" style="fill: none; stroke: #000123"/>
    </g>
    <g clip-path="url(#p7af51dbf59)">
     <use xlink:href="#C0_0_af2bc63d30" x="202.766341" y="238.38536" style="fill: none; stroke: #000123"/>
    </g>
    <g clip-path="url(#p7af51dbf59)">
     <use xlink:href="#C0_0_af2bc63d30" x="214.932627" y="222.658925" style="fill: none; stroke: #000123"/>
    </g>
    <g clip-path="url(#p7af51dbf59)">
     <use xlink:href="#C0_0_af2bc63d30" x="227.098913" y="205.685236" style="fill: none; stroke: #000123"/>
    </g>
    <g clip-path="url(#p7af51dbf59)">
     <use xlink:href="#C0_0_af2bc63d30" x="239.265199" y="187.809681" style="fill: none; stroke: #000123"/>
    </g>
    <g clip-path="url(#p7af51dbf59)">
     <use xlink:href="#C0_0_af2bc63d30" x="251.431485" y="169.377646" style="fill: none; stroke: #000123"/>
    </g>
    <g clip-path="url(#p7af51dbf59)">
     <use xlink:href="#C0_0_af2bc63d30" x="263.597771" y="150.734517" style="fill: none; stroke: #000123"/>
    </g>
    <g clip-path="url(#p7af51dbf59)">
     <use xlink:href="#C0_0_af2bc63d30" x="275.764057" y="132.225682" style="fill: none; stroke: #000123"/>
    </g>
    <g clip-path="url(#p7af51dbf59)">
     <use xlink:href="#C0_0_af2bc63d30" x="287.930343" y="114.196527" style="fill: none; stroke: #000123"/>
    </g>
    <g clip-path="url(#p7af51dbf59)">
     <use xlink:href="#C0_0_af2bc63d30" x="300.096629" y="96.99244" style="fill: none; stroke: #000123"/>
    </g>
    <g clip-path="url(#p7af51dbf59)">
     <use xlink:href="#C0_0_af2bc63d30" x="312.262915" y="80.958805" style="fill: none; stroke: #000123"/>
    </g>
    <g clip-path="url(#p7af51dbf59)">
     <use xlink:href="#C0_0_af2bc63d30" x="324.429201" y="66.441011" style="fill: none; stroke: #000123"/>
    </g>
    <g clip-path="url(#p7af51dbf59)">
     <use xlink:href="#C0_0_af2bc63d30" x="336.595487" y="53.784444" style="fill: none; stroke: #000123"/>
    </g>
    <g clip-path="url(#p7af51dbf59)">
     <use xlink:href="#C0_0_af2bc63d30" x="348.761772" y="43.334491" style="fill: none; stroke: #000123"/>
    </g>
    <g clip-path="url(#p7af51dbf59)">
     <use xlink:href="#C0_0_af2bc63d30" x="360.928058" y="35.436539" style="fill: none; stroke: #000123"/>
    </g>
    <g clip-path="url(#p7af51dbf59)">
     <use xlink:href="#C0_0_af2bc63d30" x="373.094344" y="30.435973" style="fill: none; stroke: #000123"/>
    </g>
    <g clip-path="url(#p7af51dbf59)">
     <use xlink:href="#C0_0_af2bc63d30" x="385.26063" y="28.678182" style="fill: none; stroke: #000123"/>
    </g>
    <g clip-path="url(#p7af51dbf59)">
     <use xlink:href="#C0_0_af2bc63d30" x="397.426916" y="30.508551" style="fill: none; stroke: #000123"/>
    </g>
    <g clip-path="url(#p7af51dbf59)">
     <use xlink:href="#C0_0_af2bc63d30" x="409.593202" y="36.272468" style="fill: none; stroke: #000123"/>
    </g>
    <g clip-path="url(#p7af51dbf59)">
     <use xlink:href="#C0_0_af2bc63d30" x="421.759488" y="46.315318" style="fill: none; stroke: #000123"/>
    </g>
    <g clip-path="url(#p7af51dbf59)">
     <use xlink:href="#C0_0_af2bc63d30" x="433.925774" y="60.98249" style="fill: none; stroke: #000123"/>
    </g>
    <g clip-path="url(#p7af51dbf59)">
     <use xlink:href="#C0_0_af2bc63d30" x="446.09206" y="80.619369" style="fill: none; stroke: #000123"/>
    </g>
    <g clip-path="url(#p7af51dbf59)">
     <use xlink:href="#C0_0_af2bc63d30" x="458.258346" y="105.571342" style="fill: none; stroke: #000123"/>
    </g>
    <g clip-path="url(#p7af51dbf59)">
     <use xlink:href="#C0_0_af2bc63d30" x="470.424632" y="136.183797" style="fill: none; stroke: #000123"/>
    </g>
    <g clip-path="url(#p7af51dbf59)">
     <use xlink:href="#C0_0_af2bc63d30" x="482.590918" y="172.802119" style="fill: none; stroke: #000123"/>
    </g>
    <g clip-path="url(#p7af51dbf59)">
     <use xlink:href="#C0_0_af2bc63d30" x="494.757204" y="215.771695" style="fill: none; stroke: #000123"/>
    </g>
    <g clip-path="url(#p7af51dbf59)">
     <use xlink:href="#C0_0_af2bc63d30" x="506.92349" y="265.437913" style="fill: none; stroke: #000123"/>
    </g>
    <g clip-path="url(#p7af51dbf59)">
     <use xlink:href="#C0_0_af2bc63d30" x="519.089776" y="322.146158" style="fill: none; stroke: #000123"/>
    </g>
    <g clip-path="url(#p7af51dbf59)">
     <use xlink:href="#C0_0_af2bc63d30" x="531.256062" y="386.241818" style="fill: none; stroke: #000123"/>
    </g>
   </g>
   <g id="PathCollection_3">
    <defs>
     <path id="m17de7e83be" d="M 0 3 
C 0.795609 3 1.55874 2.683901 2.12132 2.12132 
C 2.683901 1.55874 3 0.795609 3 0 
C 3 -0.795609 2.683901 -1.55874 2.12132 -2.12132 
C 1.55874 -2.683901 0.795609 -3 0 -3 
C -0.795609 -3 -1.55874 -2.683901 -2.12132 -2.12132 
C -2.683901 -1.55874 -3 -0.795609 -3 0 
C -3 0.795609 -2.683901 1.55874 -2.12132 2.12132 
C -1.55874 2.683901 -0.795609 3 0 3 
z
" style="stroke: #1f77b4"/>
    </defs>
    <g clip-path="url(#p7af51dbf59)">
     <use xlink:href="#m17de7e83be" x="56.770909" y="279.355759" style="fill: #1f77b4; stroke: #1f77b4"/>
     <use xlink:href="#m17de7e83be" x="68.937195" y="269.254143" style="fill: #1f77b4; stroke: #1f77b4"/>
     <use xlink:href="#m17de7e83be" x="81.103481" y="263.60659" style="fill: #1f77b4; stroke: #1f77b4"/>
     <use xlink:href="#m17de7e83be" x="93.269767" y="272.251471" style="fill: #1f77b4; stroke: #1f77b4"/>
     <use xlink:href="#m17de7e83be" x="105.436053" y="278.663084" style="fill: #1f77b4; stroke: #1f77b4"/>
     <use xlink:href="#m17de7e83be" x="117.602339" y="278.914986" style="fill: #1f77b4; stroke: #1f77b4"/>
     <use xlink:href="#m17de7e83be" x="129.768625" y="277.144246" style="fill: #1f77b4; stroke: #1f77b4"/>
     <use xlink:href="#m17de7e83be" x="141.934911" y="275.179993" style="fill: #1f77b4; stroke: #1f77b4"/>
     <use xlink:href="#m17de7e83be" x="154.101197" y="273.497184" style="fill: #1f77b4; stroke: #1f77b4"/>
     <use xlink:href="#m17de7e83be" x="166.267483" y="272.184999" style="fill: #1f77b4; stroke: #1f77b4"/>
     <use xlink:href="#m17de7e83be" x="178.433769" y="271.219711" style="fill: #1f77b4; stroke: #1f77b4"/>
     <use xlink:href="#m17de7e83be" x="190.600055" y="270.549277" style="fill: #1f77b4; stroke: #1f77b4"/>
     <use xlink:href="#m17de7e83be" x="202.766341" y="270.120278" style="fill: #1f77b4; stroke: #1f77b4"/>
     <use xlink:href="#m17de7e83be" x="214.932627" y="269.885843" style="fill: #1f77b4; stroke: #1f77b4"/>
     <use xlink:href="#m17de7e83be" x="227.098913" y="269.807118" style="fill: #1f77b4; stroke: #1f77b4"/>
     <use xlink:href="#m17de7e83be" x="239.265199" y="269.852649" style="fill: #1f77b4; stroke: #1f77b4"/>
     <use xlink:href="#m17de7e83be" x="251.431485" y="269.997209" style="fill: #1f77b4; stroke: #1f77b4"/>
     <use xlink:href="#m17de7e83be" x="263.597771" y="270.220619" style="fill: #1f77b4; stroke: #1f77b4"/>
     <use xlink:href="#m17de7e83be" x="275.764057" y="270.506729" style="fill: #1f77b4; stroke: #1f77b4"/>
     <use xlink:href="#m17de7e83be" x="287.930343" y="270.842582" style="fill: #1f77b4; stroke: #1f77b4"/>
     <use xlink:href="#m17de7e83be" x="300.096629" y="271.217749" style="fill: #1f77b4; stroke: #1f77b4"/>
     <use xlink:href="#m17de7e83be" x="312.262915" y="271.623806" style="fill: #1f77b4; stroke: #1f77b4"/>
     <use xlink:href="#m17de7e83be" x="324.429201" y="272.053928" style="fill: #1f77b4; stroke: #1f77b4"/>
     <use xlink:href="#m17de7e83be" x="336.595487" y="272.502564" style="fill: #1f77b4; stroke: #1f77b4"/>
     <use xlink:href="#m17de7e83be" x="348.761772" y="272.965186" style="fill: #1f77b4; stroke: #1f77b4"/>
     <use xlink:href="#m17de7e83be" x="360.928058" y="273.438092" style="fill: #1f77b4; stroke: #1f77b4"/>
     <use xlink:href="#m17de7e83be" x="373.094344" y="273.918248" style="fill: #1f77b4; stroke: #1f77b4"/>
     <use xlink:href="#m17de7e83be" x="385.26063" y="274.403165" style="fill: #1f77b4; stroke: #1f77b4"/>
     <use xlink:href="#m17de7e83be" x="397.426916" y="274.890795" style="fill: #1f77b4; stroke: #1f77b4"/>
     <use xlink:href="#m17de7e83be" x="409.593202" y="275.379456" style="fill: #1f77b4; stroke: #1f77b4"/>
     <use xlink:href="#m17de7e83be" x="421.759488" y="275.867765" style="fill: #1f77b4; stroke: #1f77b4"/>
     <use xlink:href="#m17de7e83be" x="433.925774" y="276.354584" style="fill: #1f77b4; stroke: #1f77b4"/>
     <use xlink:href="#m17de7e83be" x="446.09206" y="276.838983" style="fill: #1f77b4; stroke: #1f77b4"/>
     <use xlink:href="#m17de7e83be" x="458.258346" y="277.320198" style="fill: #1f77b4; stroke: #1f77b4"/>
     <use xlink:href="#m17de7e83be" x="470.424632" y="277.79761" style="fill: #1f77b4; stroke: #1f77b4"/>
     <use xlink:href="#m17de7e83be" x="482.590918" y="278.270716" style="fill: #1f77b4; stroke: #1f77b4"/>
     <use xlink:href="#m17de7e83be" x="494.757204" y="278.739112" style="fill: #1f77b4; stroke: #1f77b4"/>
     <use xlink:href="#m17de7e83be" x="506.92349" y="279.202476" style="fill: #1f77b4; stroke: #1f77b4"/>
     <use xlink:href="#m17de7e83be" x="519.089776" y="279.660557" style="fill: #1f77b4; stroke: #1f77b4"/>
     <use xlink:href="#m17de7e83be" x="531.256062" y="280.11316" style="fill: #1f77b4; stroke: #1f77b4"/>
    </g>
   </g>
   <g id="matplotlib.axis_1">
    <g id="xtick_1">
     <g id="line2d_1">
      <defs>
       <path id="m477986fc6a" d="M 0 0 
L 0 3.5 
" style="stroke: #000000; stroke-width: 0.8"/>
      </defs>
      <g>
       <use xlink:href="#m477986fc6a" x="56.770909" y="404.12" style="stroke: #000000; stroke-width: 0.8"/>
      </g>
     </g>
     <g id="text_1">
      <!-- 0 -->
      <g transform="translate(53.589659 418.718437) scale(0.1 -0.1)">
       <defs>
        <path id="DejaVuSans-30" d="M 2034 4250 
Q 1547 4250 1301 3770 
Q 1056 3291 1056 2328 
Q 1056 1369 1301 889 
Q 1547 409 2034 409 
Q 2525 409 2770 889 
Q 3016 1369 3016 2328 
Q 3016 3291 2770 3770 
Q 2525 4250 2034 4250 
z
M 2034 4750 
Q 2819 4750 3233 4129 
Q 3647 3509 3647 2328 
Q 3647 1150 3233 529 
Q 2819 -91 2034 -91 
Q 1250 -91 836 529 
Q 422 1150 422 2328 
Q 422 3509 836 4129 
Q 1250 4750 2034 4750 
z
" transform="scale(0.015625)"/>
       </defs>
       <use xlink:href="#DejaVuSans-30"/>
      </g>
     </g>
    </g>
    <g id="xtick_2">
     <g id="line2d_2">
      <g>
       <use xlink:href="#m477986fc6a" x="153.614545" y="404.12" style="stroke: #000000; stroke-width: 0.8"/>
      </g>
     </g>
     <g id="text_2">
      <!-- 2 -->
      <g transform="translate(150.433295 418.718437) scale(0.1 -0.1)">
       <defs>
        <path id="DejaVuSans-32" d="M 1228 531 
L 3431 531 
L 3431 0 
L 469 0 
L 469 531 
Q 828 903 1448 1529 
Q 2069 2156 2228 2338 
Q 2531 2678 2651 2914 
Q 2772 3150 2772 3378 
Q 2772 3750 2511 3984 
Q 2250 4219 1831 4219 
Q 1534 4219 1204 4116 
Q 875 4013 500 3803 
L 500 4441 
Q 881 4594 1212 4672 
Q 1544 4750 1819 4750 
Q 2544 4750 2975 4387 
Q 3406 4025 3406 3419 
Q 3406 3131 3298 2873 
Q 3191 2616 2906 2266 
Q 2828 2175 2409 1742 
Q 1991 1309 1228 531 
z
" transform="scale(0.015625)"/>
       </defs>
       <use xlink:href="#DejaVuSans-32"/>
      </g>
     </g>
    </g>
    <g id="xtick_3">
     <g id="line2d_3">
      <g>
       <use xlink:href="#m477986fc6a" x="250.458182" y="404.12" style="stroke: #000000; stroke-width: 0.8"/>
      </g>
     </g>
     <g id="text_3">
      <!-- 4 -->
      <g transform="translate(247.276932 418.718437) scale(0.1 -0.1)">
       <defs>
        <path id="DejaVuSans-34" d="M 2419 4116 
L 825 1625 
L 2419 1625 
L 2419 4116 
z
M 2253 4666 
L 3047 4666 
L 3047 1625 
L 3713 1625 
L 3713 1100 
L 3047 1100 
L 3047 0 
L 2419 0 
L 2419 1100 
L 313 1100 
L 313 1709 
L 2253 4666 
z
" transform="scale(0.015625)"/>
       </defs>
       <use xlink:href="#DejaVuSans-34"/>
      </g>
     </g>
    </g>
    <g id="xtick_4">
     <g id="line2d_4">
      <g>
       <use xlink:href="#m477986fc6a" x="347.301818" y="404.12" style="stroke: #000000; stroke-width: 0.8"/>
      </g>
     </g>
     <g id="text_4">
      <!-- 6 -->
      <g transform="translate(344.120568 418.718437) scale(0.1 -0.1)">
       <defs>
        <path id="DejaVuSans-36" d="M 2113 2584 
Q 1688 2584 1439 2293 
Q 1191 2003 1191 1497 
Q 1191 994 1439 701 
Q 1688 409 2113 409 
Q 2538 409 2786 701 
Q 3034 994 3034 1497 
Q 3034 2003 2786 2293 
Q 2538 2584 2113 2584 
z
M 3366 4563 
L 3366 3988 
Q 3128 4100 2886 4159 
Q 2644 4219 2406 4219 
Q 1781 4219 1451 3797 
Q 1122 3375 1075 2522 
Q 1259 2794 1537 2939 
Q 1816 3084 2150 3084 
Q 2853 3084 3261 2657 
Q 3669 2231 3669 1497 
Q 3669 778 3244 343 
Q 2819 -91 2113 -91 
Q 1303 -91 875 529 
Q 447 1150 447 2328 
Q 447 3434 972 4092 
Q 1497 4750 2381 4750 
Q 2619 4750 2861 4703 
Q 3103 4656 3366 4563 
z
" transform="scale(0.015625)"/>
       </defs>
       <use xlink:href="#DejaVuSans-36"/>
      </g>
     </g>
    </g>
    <g id="xtick_5">
     <g id="line2d_5">
      <g>
       <use xlink:href="#m477986fc6a" x="444.145455" y="404.12" style="stroke: #000000; stroke-width: 0.8"/>
      </g>
     </g>
     <g id="text_5">
      <!-- 8 -->
      <g transform="translate(440.964205 418.718437) scale(0.1 -0.1)">
       <defs>
        <path id="DejaVuSans-38" d="M 2034 2216 
Q 1584 2216 1326 1975 
Q 1069 1734 1069 1313 
Q 1069 891 1326 650 
Q 1584 409 2034 409 
Q 2484 409 2743 651 
Q 3003 894 3003 1313 
Q 3003 1734 2745 1975 
Q 2488 2216 2034 2216 
z
M 1403 2484 
Q 997 2584 770 2862 
Q 544 3141 544 3541 
Q 544 4100 942 4425 
Q 1341 4750 2034 4750 
Q 2731 4750 3128 4425 
Q 3525 4100 3525 3541 
Q 3525 3141 3298 2862 
Q 3072 2584 2669 2484 
Q 3125 2378 3379 2068 
Q 3634 1759 3634 1313 
Q 3634 634 3220 271 
Q 2806 -91 2034 -91 
Q 1263 -91 848 271 
Q 434 634 434 1313 
Q 434 1759 690 2068 
Q 947 2378 1403 2484 
z
M 1172 3481 
Q 1172 3119 1398 2916 
Q 1625 2713 2034 2713 
Q 2441 2713 2670 2916 
Q 2900 3119 2900 3481 
Q 2900 3844 2670 4047 
Q 2441 4250 2034 4250 
Q 1625 4250 1398 4047 
Q 1172 3844 1172 3481 
z
" transform="scale(0.015625)"/>
       </defs>
       <use xlink:href="#DejaVuSans-38"/>
      </g>
     </g>
    </g>
    <g id="xtick_6">
     <g id="line2d_6">
      <g>
       <use xlink:href="#m477986fc6a" x="540.989091" y="404.12" style="stroke: #000000; stroke-width: 0.8"/>
      </g>
     </g>
     <g id="text_6">
      <!-- 10 -->
      <g transform="translate(534.626591 418.718437) scale(0.1 -0.1)">
       <defs>
        <path id="DejaVuSans-31" d="M 794 531 
L 1825 531 
L 1825 4091 
L 703 3866 
L 703 4441 
L 1819 4666 
L 2450 4666 
L 2450 531 
L 3481 531 
L 3481 0 
L 794 0 
L 794 531 
z
" transform="scale(0.015625)"/>
       </defs>
       <use xlink:href="#DejaVuSans-31"/>
       <use xlink:href="#DejaVuSans-30" transform="translate(63.623047 0)"/>
      </g>
     </g>
    </g>
   </g>
   <g id="matplotlib.axis_2">
    <g id="ytick_1">
     <g id="line2d_7">
      <defs>
       <path id="ma45b6390b3" d="M 0 0 
L -3.5 0 
" style="stroke: #000000; stroke-width: 0.8"/>
      </defs>
      <g>
       <use xlink:href="#ma45b6390b3" x="32.56" y="353.146836" style="stroke: #000000; stroke-width: 0.8"/>
      </g>
     </g>
     <g id="text_7">
      <!-- −5 -->
      <g transform="translate(10.817813 356.946054) scale(0.1 -0.1)">
       <defs>
        <path id="DejaVuSans-2212" d="M 678 2272 
L 4684 2272 
L 4684 1741 
L 678 1741 
L 678 2272 
z
" transform="scale(0.015625)"/>
        <path id="DejaVuSans-35" d="M 691 4666 
L 3169 4666 
L 3169 4134 
L 1269 4134 
L 1269 2991 
Q 1406 3038 1543 3061 
Q 1681 3084 1819 3084 
Q 2600 3084 3056 2656 
Q 3513 2228 3513 1497 
Q 3513 744 3044 326 
Q 2575 -91 1722 -91 
Q 1428 -91 1123 -41 
Q 819 9 494 109 
L 494 744 
Q 775 591 1075 516 
Q 1375 441 1709 441 
Q 2250 441 2565 725 
Q 2881 1009 2881 1497 
Q 2881 1984 2565 2268 
Q 2250 2553 1709 2553 
Q 1456 2553 1204 2497 
Q 953 2441 691 2322 
L 691 4666 
z
" transform="scale(0.015625)"/>
       </defs>
       <use xlink:href="#DejaVuSans-2212"/>
       <use xlink:href="#DejaVuSans-35" transform="translate(83.789062 0)"/>
      </g>
     </g>
    </g>
    <g id="ytick_2">
     <g id="line2d_8">
      <g>
       <use xlink:href="#ma45b6390b3" x="32.56" y="279.355758" style="stroke: #000000; stroke-width: 0.8"/>
      </g>
     </g>
     <g id="text_8">
      <!-- 0 -->
      <g transform="translate(19.1975 283.154977) scale(0.1 -0.1)">
       <use xlink:href="#DejaVuSans-30"/>
      </g>
     </g>
    </g>
    <g id="ytick_3">
     <g id="line2d_9">
      <g>
       <use xlink:href="#ma45b6390b3" x="32.56" y="205.564681" style="stroke: #000000; stroke-width: 0.8"/>
      </g>
     </g>
     <g id="text_9">
      <!-- 5 -->
      <g transform="translate(19.1975 209.363899) scale(0.1 -0.1)">
       <use xlink:href="#DejaVuSans-35"/>
      </g>
     </g>
    </g>
    <g id="ytick_4">
     <g id="line2d_10">
      <g>
       <use xlink:href="#ma45b6390b3" x="32.56" y="131.773603" style="stroke: #000000; stroke-width: 0.8"/>
      </g>
     </g>
     <g id="text_10">
      <!-- 10 -->
      <g transform="translate(12.835 135.572822) scale(0.1 -0.1)">
       <use xlink:href="#DejaVuSans-31"/>
       <use xlink:href="#DejaVuSans-30" transform="translate(63.623047 0)"/>
      </g>
     </g>
    </g>
    <g id="ytick_5">
     <g id="line2d_11">
      <g>
       <use xlink:href="#ma45b6390b3" x="32.56" y="57.982526" style="stroke: #000000; stroke-width: 0.8"/>
      </g>
     </g>
     <g id="text_11">
      <!-- 15 -->
      <g transform="translate(12.835 61.781745) scale(0.1 -0.1)">
       <use xlink:href="#DejaVuSans-31"/>
       <use xlink:href="#DejaVuSans-35" transform="translate(63.623047 0)"/>
      </g>
     </g>
    </g>
   </g>
   <g id="line2d_12">
    <path d="M 56.770909 279.355758 
L 61.637423 274.97537 
L 64.070681 272.913733 
L 66.503938 271.002847 
L 68.937195 269.287192 
L 71.370452 267.806494 
L 73.803709 266.594765 
L 76.236967 265.679487 
L 78.670224 265.080965 
L 81.103481 264.811856 
L 83.536738 264.876894 
L 85.969995 265.272811 
L 88.403253 265.988456 
L 90.83651 267.005114 
L 93.269767 268.297004 
L 95.703024 269.831958 
L 98.136281 271.572245 
L 103.002796 275.495962 
L 112.735825 283.77345 
L 115.169082 285.650093 
L 117.602339 287.360419 
L 120.035596 288.86655 
L 122.468853 290.13594 
L 124.902111 291.142095 
L 127.335368 291.865141 
L 129.768625 292.29222 
L 132.201882 292.417703 
L 134.635139 292.243224 
L 137.068397 291.777534 
L 139.501654 291.036177 
L 141.934911 290.041007 
L 144.368168 288.819554 
L 146.801425 287.40426 
L 151.66794 284.141167 
L 163.834226 275.392821 
L 166.267483 273.869202 
L 168.70074 272.504923 
L 171.133997 271.328185 
L 173.567254 270.362094 
L 176.000512 269.624217 
L 178.433769 269.126279 
L 180.867026 268.874021 
L 183.300283 268.867199 
L 185.73354 269.099738 
L 188.166798 269.560026 
L 190.600055 270.231333 
L 193.033312 271.092354 
L 195.466569 272.117839 
L 200.333084 274.545884 
L 214.932627 282.520225 
L 217.365884 283.623305 
L 219.799141 284.592806 
L 222.232398 285.410487 
L 224.665656 286.062318 
L 227.098913 286.538678 
L 229.53217 286.834444 
L 231.965427 286.948967 
L 234.398684 286.885936 
L 236.831942 286.653137 
L 239.265199 286.262121 
L 241.698456 285.727794 
L 246.56497 284.302641 
L 251.431485 282.544424 
L 263.597771 277.902525 
L 268.464285 276.393132 
L 273.330799 275.274725 
L 275.764057 274.885545 
L 278.197314 274.616128 
L 280.630571 274.467485 
L 283.063828 274.437699 
L 287.930343 274.713495 
L 292.796857 275.377718 
L 297.663371 276.334434 
L 304.963143 278.065991 
L 312.262915 279.799232 
L 317.129429 280.782199 
L 321.995943 281.537294 
L 326.862458 282.019141 
L 331.728972 282.212348 
L 336.595487 282.129897 
L 341.462001 281.80897 
L 348.761772 281.004631 
L 368.22783 278.54979 
L 373.094344 278.166801 
L 377.960859 277.937267 
L 382.827373 277.863287 
L 390.127145 278.013084 
L 397.426916 278.39369 
L 419.326231 279.761875 
L 426.626003 279.992522 
L 436.359032 280.038367 
L 448.525317 279.780166 
L 472.857889 279.134284 
L 485.024175 279.064598 
L 502.056976 279.219418 
L 528.822805 279.461019 
L 540.989091 279.454008 
L 540.989091 279.454008 
" clip-path="url(#p7af51dbf59)" style="fill: none; stroke: #1f77b4; stroke-width: 1.5; stroke-linecap: square"/>
   </g>
   <g id="patch_3">
    <path d="M 32.56 404.12 
L 32.56 10.8 
" style="fill: none; stroke: #000000; stroke-width: 0.8; stroke-linejoin: miter; stroke-linecap: square"/>
   </g>
   <g id="patch_4">
    <path d="M 565.2 404.12 
L 565.2 10.8 
" style="fill: none; stroke: #000000; stroke-width: 0.8; stroke-linejoin: miter; stroke-linecap: square"/>
   </g>
   <g id="patch_5">
    <path d="M 32.56 404.12 
L 565.2 404.12 
" style="fill: none; stroke: #000000; stroke-width: 0.8; stroke-linejoin: miter; stroke-linecap: square"/>
   </g>
   <g id="patch_6">
    <path d="M 32.56 10.8 
L 565.2 10.8 
" style="fill: none; stroke: #000000; stroke-width: 0.8; stroke-linejoin: miter; stroke-linecap: square"/>
   </g>
   <g id="legend_1">
    <g id="patch_7">
     <path d="M 438.310937 77.5125 
L 558.2 77.5125 
Q 560.2 77.5125 560.2 75.5125 
L 560.2 17.8 
Q 560.2 15.8 558.2 15.8 
L 438.310937 15.8 
Q 436.310937 15.8 436.310937 17.8 
L 436.310937 75.5125 
Q 436.310937 77.5125 438.310937 77.5125 
z
" style="fill: #ffffff; opacity: 0.8; stroke: #cccccc; stroke-linejoin: miter"/>
    </g>
    <g id="PathCollection_4">
     <g>
      <use xlink:href="#m1d72cbbde3" x="450.310937" y="24.773438" style="fill: #ff0000; stroke: #ff0000"/>
     </g>
    </g>
    <g id="text_12">
     <!-- non-uniform grid -->
     <g transform="translate(468.310937 27.398438) scale(0.1 -0.1)">
      <defs>
       <path id="DejaVuSans-6e" d="M 3513 2113 
L 3513 0 
L 2938 0 
L 2938 2094 
Q 2938 2591 2744 2837 
Q 2550 3084 2163 3084 
Q 1697 3084 1428 2787 
Q 1159 2491 1159 1978 
L 1159 0 
L 581 0 
L 581 3500 
L 1159 3500 
L 1159 2956 
Q 1366 3272 1645 3428 
Q 1925 3584 2291 3584 
Q 2894 3584 3203 3211 
Q 3513 2838 3513 2113 
z
" transform="scale(0.015625)"/>
       <path id="DejaVuSans-6f" d="M 1959 3097 
Q 1497 3097 1228 2736 
Q 959 2375 959 1747 
Q 959 1119 1226 758 
Q 1494 397 1959 397 
Q 2419 397 2687 759 
Q 2956 1122 2956 1747 
Q 2956 2369 2687 2733 
Q 2419 3097 1959 3097 
z
M 1959 3584 
Q 2709 3584 3137 3096 
Q 3566 2609 3566 1747 
Q 3566 888 3137 398 
Q 2709 -91 1959 -91 
Q 1206 -91 779 398 
Q 353 888 353 1747 
Q 353 2609 779 3096 
Q 1206 3584 1959 3584 
z
" transform="scale(0.015625)"/>
       <path id="DejaVuSans-2d" d="M 313 2009 
L 1997 2009 
L 1997 1497 
L 313 1497 
L 313 2009 
z
" transform="scale(0.015625)"/>
       <path id="DejaVuSans-75" d="M 544 1381 
L 544 3500 
L 1119 3500 
L 1119 1403 
Q 1119 906 1312 657 
Q 1506 409 1894 409 
Q 2359 409 2629 706 
Q 2900 1003 2900 1516 
L 2900 3500 
L 3475 3500 
L 3475 0 
L 2900 0 
L 2900 538 
Q 2691 219 2414 64 
Q 2138 -91 1772 -91 
Q 1169 -91 856 284 
Q 544 659 544 1381 
z
M 1991 3584 
L 1991 3584 
z
" transform="scale(0.015625)"/>
       <path id="DejaVuSans-69" d="M 603 3500 
L 1178 3500 
L 1178 0 
L 603 0 
L 603 3500 
z
M 603 4863 
L 1178 4863 
L 1178 4134 
L 603 4134 
L 603 4863 
z
" transform="scale(0.015625)"/>
       <path id="DejaVuSans-66" d="M 2375 4863 
L 2375 4384 
L 1825 4384 
Q 1516 4384 1395 4259 
Q 1275 4134 1275 3809 
L 1275 3500 
L 2222 3500 
L 2222 3053 
L 1275 3053 
L 1275 0 
L 697 0 
L 697 3053 
L 147 3053 
L 147 3500 
L 697 3500 
L 697 3744 
Q 697 4328 969 4595 
Q 1241 4863 1831 4863 
L 2375 4863 
z
" transform="scale(0.015625)"/>
       <path id="DejaVuSans-72" d="M 2631 2963 
Q 2534 3019 2420 3045 
Q 2306 3072 2169 3072 
Q 1681 3072 1420 2755 
Q 1159 2438 1159 1844 
L 1159 0 
L 581 0 
L 581 3500 
L 1159 3500 
L 1159 2956 
Q 1341 3275 1631 3429 
Q 1922 3584 2338 3584 
Q 2397 3584 2469 3576 
Q 2541 3569 2628 3553 
L 2631 2963 
z
" transform="scale(0.015625)"/>
       <path id="DejaVuSans-6d" d="M 3328 2828 
Q 3544 3216 3844 3400 
Q 4144 3584 4550 3584 
Q 5097 3584 5394 3201 
Q 5691 2819 5691 2113 
L 5691 0 
L 5113 0 
L 5113 2094 
Q 5113 2597 4934 2840 
Q 4756 3084 4391 3084 
Q 3944 3084 3684 2787 
Q 3425 2491 3425 1978 
L 3425 0 
L 2847 0 
L 2847 2094 
Q 2847 2600 2669 2842 
Q 2491 3084 2119 3084 
Q 1678 3084 1418 2786 
Q 1159 2488 1159 1978 
L 1159 0 
L 581 0 
L 581 3500 
L 1159 3500 
L 1159 2956 
Q 1356 3278 1631 3431 
Q 1906 3584 2284 3584 
Q 2666 3584 2933 3390 
Q 3200 3197 3328 2828 
z
" transform="scale(0.015625)"/>
       <path id="DejaVuSans-20" transform="scale(0.015625)"/>
       <path id="DejaVuSans-67" d="M 2906 1791 
Q 2906 2416 2648 2759 
Q 2391 3103 1925 3103 
Q 1463 3103 1205 2759 
Q 947 2416 947 1791 
Q 947 1169 1205 825 
Q 1463 481 1925 481 
Q 2391 481 2648 825 
Q 2906 1169 2906 1791 
z
M 3481 434 
Q 3481 -459 3084 -895 
Q 2688 -1331 1869 -1331 
Q 1566 -1331 1297 -1286 
Q 1028 -1241 775 -1147 
L 775 -588 
Q 1028 -725 1275 -790 
Q 1522 -856 1778 -856 
Q 2344 -856 2625 -561 
Q 2906 -266 2906 331 
L 2906 616 
Q 2728 306 2450 153 
Q 2172 0 1784 0 
Q 1141 0 747 490 
Q 353 981 353 1791 
Q 353 2603 747 3093 
Q 1141 3584 1784 3584 
Q 2172 3584 2450 3431 
Q 2728 3278 2906 2969 
L 2906 3500 
L 3481 3500 
L 3481 434 
z
" transform="scale(0.015625)"/>
       <path id="DejaVuSans-64" d="M 2906 2969 
L 2906 4863 
L 3481 4863 
L 3481 0 
L 2906 0 
L 2906 525 
Q 2725 213 2448 61 
Q 2172 -91 1784 -91 
Q 1150 -91 751 415 
Q 353 922 353 1747 
Q 353 2572 751 3078 
Q 1150 3584 1784 3584 
Q 2172 3584 2448 3432 
Q 2725 3281 2906 2969 
z
M 947 1747 
Q 947 1113 1208 752 
Q 1469 391 1925 391 
Q 2381 391 2643 752 
Q 2906 1113 2906 1747 
Q 2906 2381 2643 2742 
Q 2381 3103 1925 3103 
Q 1469 3103 1208 2742 
Q 947 2381 947 1747 
z
" transform="scale(0.015625)"/>
      </defs>
      <use xlink:href="#DejaVuSans-6e"/>
      <use xlink:href="#DejaVuSans-6f" transform="translate(63.378906 0)"/>
      <use xlink:href="#DejaVuSans-6e" transform="translate(124.560547 0)"/>
      <use xlink:href="#DejaVuSans-2d" transform="translate(187.939453 0)"/>
      <use xlink:href="#DejaVuSans-75" transform="translate(224.023438 0)"/>
      <use xlink:href="#DejaVuSans-6e" transform="translate(287.402344 0)"/>
      <use xlink:href="#DejaVuSans-69" transform="translate(350.78125 0)"/>
      <use xlink:href="#DejaVuSans-66" transform="translate(378.564453 0)"/>
      <use xlink:href="#DejaVuSans-6f" transform="translate(413.769531 0)"/>
      <use xlink:href="#DejaVuSans-72" transform="translate(474.951172 0)"/>
      <use xlink:href="#DejaVuSans-6d" transform="translate(514.314453 0)"/>
      <use xlink:href="#DejaVuSans-20" transform="translate(611.726562 0)"/>
      <use xlink:href="#DejaVuSans-67" transform="translate(643.513672 0)"/>
      <use xlink:href="#DejaVuSans-72" transform="translate(706.990234 0)"/>
      <use xlink:href="#DejaVuSans-69" transform="translate(748.103516 0)"/>
      <use xlink:href="#DejaVuSans-64" transform="translate(775.886719 0)"/>
     </g>
    </g>
    <g id="PathCollection_5">
     <path d="M 450.310937 42.451563 
C 451.106547 42.451563 451.869677 42.135464 452.432258 41.572883 
C 452.994839 41.010302 453.310937 40.247172 453.310937 39.451563 
C 453.310937 38.655953 452.994839 37.892823 452.432258 37.330242 
C 451.869677 36.767661 451.106547 36.451563 450.310937 36.451563 
C 449.515328 36.451563 448.752198 36.767661 448.189617 37.330242 
C 447.627036 37.892823 447.310937 38.655953 447.310937 39.451563 
C 447.310937 40.247172 447.627036 41.010302 448.189617 41.572883 
C 448.752198 42.135464 449.515328 42.451563 450.310937 42.451563 
L 450.310937 42.451563 
z
" style="fill: none; stroke: #000123"/>
    </g>
    <g id="text_13">
     <!-- interpolation on r -->
     <g transform="translate(468.310937 42.076563) scale(0.1 -0.1)">
      <defs>
       <path id="DejaVuSans-74" d="M 1172 4494 
L 1172 3500 
L 2356 3500 
L 2356 3053 
L 1172 3053 
L 1172 1153 
Q 1172 725 1289 603 
Q 1406 481 1766 481 
L 2356 481 
L 2356 0 
L 1766 0 
Q 1100 0 847 248 
Q 594 497 594 1153 
L 594 3053 
L 172 3053 
L 172 3500 
L 594 3500 
L 594 4494 
L 1172 4494 
z
" transform="scale(0.015625)"/>
       <path id="DejaVuSans-65" d="M 3597 1894 
L 3597 1613 
L 953 1613 
Q 991 1019 1311 708 
Q 1631 397 2203 397 
Q 2534 397 2845 478 
Q 3156 559 3463 722 
L 3463 178 
Q 3153 47 2828 -22 
Q 2503 -91 2169 -91 
Q 1331 -91 842 396 
Q 353 884 353 1716 
Q 353 2575 817 3079 
Q 1281 3584 2069 3584 
Q 2775 3584 3186 3129 
Q 3597 2675 3597 1894 
z
M 3022 2063 
Q 3016 2534 2758 2815 
Q 2500 3097 2075 3097 
Q 1594 3097 1305 2825 
Q 1016 2553 972 2059 
L 3022 2063 
z
" transform="scale(0.015625)"/>
       <path id="DejaVuSans-70" d="M 1159 525 
L 1159 -1331 
L 581 -1331 
L 581 3500 
L 1159 3500 
L 1159 2969 
Q 1341 3281 1617 3432 
Q 1894 3584 2278 3584 
Q 2916 3584 3314 3078 
Q 3713 2572 3713 1747 
Q 3713 922 3314 415 
Q 2916 -91 2278 -91 
Q 1894 -91 1617 61 
Q 1341 213 1159 525 
z
M 3116 1747 
Q 3116 2381 2855 2742 
Q 2594 3103 2138 3103 
Q 1681 3103 1420 2742 
Q 1159 2381 1159 1747 
Q 1159 1113 1420 752 
Q 1681 391 2138 391 
Q 2594 391 2855 752 
Q 3116 1113 3116 1747 
z
" transform="scale(0.015625)"/>
       <path id="DejaVuSans-6c" d="M 603 4863 
L 1178 4863 
L 1178 0 
L 603 0 
L 603 4863 
z
" transform="scale(0.015625)"/>
       <path id="DejaVuSans-61" d="M 2194 1759 
Q 1497 1759 1228 1600 
Q 959 1441 959 1056 
Q 959 750 1161 570 
Q 1363 391 1709 391 
Q 2188 391 2477 730 
Q 2766 1069 2766 1631 
L 2766 1759 
L 2194 1759 
z
M 3341 1997 
L 3341 0 
L 2766 0 
L 2766 531 
Q 2569 213 2275 61 
Q 1981 -91 1556 -91 
Q 1019 -91 701 211 
Q 384 513 384 1019 
Q 384 1609 779 1909 
Q 1175 2209 1959 2209 
L 2766 2209 
L 2766 2266 
Q 2766 2663 2505 2880 
Q 2244 3097 1772 3097 
Q 1472 3097 1187 3025 
Q 903 2953 641 2809 
L 641 3341 
Q 956 3463 1253 3523 
Q 1550 3584 1831 3584 
Q 2591 3584 2966 3190 
Q 3341 2797 3341 1997 
z
" transform="scale(0.015625)"/>
      </defs>
      <use xlink:href="#DejaVuSans-69"/>
      <use xlink:href="#DejaVuSans-6e" transform="translate(27.783203 0)"/>
      <use xlink:href="#DejaVuSans-74" transform="translate(91.162109 0)"/>
      <use xlink:href="#DejaVuSans-65" transform="translate(130.371094 0)"/>
      <use xlink:href="#DejaVuSans-72" transform="translate(191.894531 0)"/>
      <use xlink:href="#DejaVuSans-70" transform="translate(233.007812 0)"/>
      <use xlink:href="#DejaVuSans-6f" transform="translate(296.484375 0)"/>
      <use xlink:href="#DejaVuSans-6c" transform="translate(357.666016 0)"/>
      <use xlink:href="#DejaVuSans-61" transform="translate(385.449219 0)"/>
      <use xlink:href="#DejaVuSans-74" transform="translate(446.728516 0)"/>
      <use xlink:href="#DejaVuSans-69" transform="translate(485.9375 0)"/>
      <use xlink:href="#DejaVuSans-6f" transform="translate(513.720703 0)"/>
      <use xlink:href="#DejaVuSans-6e" transform="translate(574.902344 0)"/>
      <use xlink:href="#DejaVuSans-20" transform="translate(638.28125 0)"/>
      <use xlink:href="#DejaVuSans-6f" transform="translate(670.068359 0)"/>
      <use xlink:href="#DejaVuSans-6e" transform="translate(731.25 0)"/>
      <use xlink:href="#DejaVuSans-20" transform="translate(794.628906 0)"/>
      <use xlink:href="#DejaVuSans-72" transform="translate(826.416016 0)"/>
     </g>
    </g>
    <g id="PathCollection_6">
     <g>
      <use xlink:href="#m17de7e83be" x="450.310937" y="54.129688" style="fill: #1f77b4; stroke: #1f77b4"/>
     </g>
    </g>
    <g id="text_14">
     <!-- interpolation on z -->
     <g transform="translate(468.310937 56.754688) scale(0.1 -0.1)">
      <defs>
       <path id="DejaVuSans-7a" d="M 353 3500 
L 3084 3500 
L 3084 2975 
L 922 459 
L 3084 459 
L 3084 0 
L 275 0 
L 275 525 
L 2438 3041 
L 353 3041 
L 353 3500 
z
" transform="scale(0.015625)"/>
      </defs>
      <use xlink:href="#DejaVuSans-69"/>
      <use xlink:href="#DejaVuSans-6e" transform="translate(27.783203 0)"/>
      <use xlink:href="#DejaVuSans-74" transform="translate(91.162109 0)"/>
      <use xlink:href="#DejaVuSans-65" transform="translate(130.371094 0)"/>
      <use xlink:href="#DejaVuSans-72" transform="translate(191.894531 0)"/>
      <use xlink:href="#DejaVuSans-70" transform="translate(233.007812 0)"/>
      <use xlink:href="#DejaVuSans-6f" transform="translate(296.484375 0)"/>
      <use xlink:href="#DejaVuSans-6c" transform="translate(357.666016 0)"/>
      <use xlink:href="#DejaVuSans-61" transform="translate(385.449219 0)"/>
      <use xlink:href="#DejaVuSans-74" transform="translate(446.728516 0)"/>
      <use xlink:href="#DejaVuSans-69" transform="translate(485.9375 0)"/>
      <use xlink:href="#DejaVuSans-6f" transform="translate(513.720703 0)"/>
      <use xlink:href="#DejaVuSans-6e" transform="translate(574.902344 0)"/>
      <use xlink:href="#DejaVuSans-20" transform="translate(638.28125 0)"/>
      <use xlink:href="#DejaVuSans-6f" transform="translate(670.068359 0)"/>
      <use xlink:href="#DejaVuSans-6e" transform="translate(731.25 0)"/>
      <use xlink:href="#DejaVuSans-20" transform="translate(794.628906 0)"/>
      <use xlink:href="#DejaVuSans-7a" transform="translate(826.416016 0)"/>
     </g>
    </g>
    <g id="line2d_13">
     <path d="M 440.310937 67.932813 
L 450.310937 67.932813 
L 460.310937 67.932813 
" style="fill: none; stroke: #1f77b4; stroke-width: 1.5; stroke-linecap: square"/>
    </g>
    <g id="text_15">
     <!-- reference data -->
     <g transform="translate(468.310937 71.432813) scale(0.1 -0.1)">
      <defs>
       <path id="DejaVuSans-63" d="M 3122 3366 
L 3122 2828 
Q 2878 2963 2633 3030 
Q 2388 3097 2138 3097 
Q 1578 3097 1268 2742 
Q 959 2388 959 1747 
Q 959 1106 1268 751 
Q 1578 397 2138 397 
Q 2388 397 2633 464 
Q 2878 531 3122 666 
L 3122 134 
Q 2881 22 2623 -34 
Q 2366 -91 2075 -91 
Q 1284 -91 818 406 
Q 353 903 353 1747 
Q 353 2603 823 3093 
Q 1294 3584 2113 3584 
Q 2378 3584 2631 3529 
Q 2884 3475 3122 3366 
z
" transform="scale(0.015625)"/>
      </defs>
      <use xlink:href="#DejaVuSans-72"/>
      <use xlink:href="#DejaVuSans-65" transform="translate(38.863281 0)"/>
      <use xlink:href="#DejaVuSans-66" transform="translate(100.386719 0)"/>
      <use xlink:href="#DejaVuSans-65" transform="translate(135.591797 0)"/>
      <use xlink:href="#DejaVuSans-72" transform="translate(197.115234 0)"/>
      <use xlink:href="#DejaVuSans-65" transform="translate(235.978516 0)"/>
      <use xlink:href="#DejaVuSans-6e" transform="translate(297.501953 0)"/>
      <use xlink:href="#DejaVuSans-63" transform="translate(360.880859 0)"/>
      <use xlink:href="#DejaVuSans-65" transform="translate(415.861328 0)"/>
      <use xlink:href="#DejaVuSans-20" transform="translate(477.384766 0)"/>
      <use xlink:href="#DejaVuSans-64" transform="translate(509.171875 0)"/>
      <use xlink:href="#DejaVuSans-61" transform="translate(572.648438 0)"/>
      <use xlink:href="#DejaVuSans-74" transform="translate(633.927734 0)"/>
      <use xlink:href="#DejaVuSans-61" transform="translate(673.136719 0)"/>
     </g>
    </g>
   </g>
  </g>
 </g>
 <defs>
  <clipPath id="p7af51dbf59">
   <rect x="32.56" y="10.8" width="532.64" height="393.32"/>
  </clipPath>
 </defs>
</svg>
