<?xml version="1.0" encoding="utf-8" standalone="no"?>
<!DOCTYPE svg PUBLIC "-//W3C//DTD SVG 1.1//EN"
  "http://www.w3.org/Graphics/SVG/1.1/DTD/svg11.dtd">
<svg xmlns:xlink="http://www.w3.org/1999/xlink" width="439.92pt" height="126.72pt" viewBox="0 0 439.92 126.72" xmlns="http://www.w3.org/2000/svg" version="1.1">
 <metadata>
  <rdf:RDF xmlns:dc="http://purl.org/dc/elements/1.1/" xmlns:cc="http://creativecommons.org/ns#" xmlns:rdf="http://www.w3.org/1999/02/22-rdf-syntax-ns#">
   <cc:Work>
    <dc:type rdf:resource="http://purl.org/dc/dcmitype/StillImage"/>
    <dc:date>2025-08-27T11:27:55.555219</dc:date>
    <dc:format>image/svg+xml</dc:format>
    <dc:creator>
     <cc:Agent>
      <dc:title>Matplotlib v3.10.0, https://matplotlib.org/</dc:title>
     </cc:Agent>
    </dc:creator>
   </cc:Work>
  </rdf:RDF>
 </metadata>
 <defs>
  <style type="text/css">*{stroke-linejoin: round; stroke-linecap: butt}</style>
 </defs>
 <g id="figure_1">
  <g id="patch_1">
   <path d="M 0 126.72 
L 439.92 126.72 
L 439.92 0 
L 0 0 
z
" style="fill: #ffffff"/>
  </g>
  <g id="axes_1">
   <g id="patch_2">
    <path d="M 42.871833 99.27104 
L 419.688156 99.27104 
L 419.688156 12.9888 
L 42.871833 12.9888 
z
" style="fill: #ffffff"/>
   </g>
   <g id="matplotlib.axis_1">
    <g id="xtick_1">
     <g id="line2d_1">
      <path d="M 42.871833 99.27104 
L 42.871833 12.9888 
" clip-path="url(#p7a692e6e7e)" style="fill: none; stroke: #b0b0b0; stroke-width: 0.8; stroke-linecap: square"/>
     </g>
     <g id="line2d_2">
      <defs>
       <path id="me1ab219a7a" d="M 0 0 
L 0 3.5 
" style="stroke: #000000; stroke-width: 0.8"/>
      </defs>
      <g>
       <use xlink:href="#me1ab219a7a" x="42.871833" y="99.27104" style="stroke: #000000; stroke-width: 0.8"/>
      </g>
     </g>
     <g id="text_1">
      <!-- $\mathdefault{10^{-3}}$ -->
      <g transform="translate(31.121833 113.869478) scale(0.1 -0.1)">
       <defs>
        <path id="DejaVuSans-31" d="M 794 531 
L 1825 531 
L 1825 4091 
L 703 3866 
L 703 4441 
L 1819 4666 
L 2450 4666 
L 2450 531 
L 3481 531 
L 3481 0 
L 794 0 
L 794 531 
z
" transform="scale(0.015625)"/>
        <path id="DejaVuSans-30" d="M 2034 4250 
Q 1547 4250 1301 3770 
Q 1056 3291 1056 2328 
Q 1056 1369 1301 889 
Q 1547 409 2034 409 
Q 2525 409 2770 889 
Q 3016 1369 3016 2328 
Q 3016 3291 2770 3770 
Q 2525 4250 2034 4250 
z
M 2034 4750 
Q 2819 4750 3233 4129 
Q 3647 3509 3647 2328 
Q 3647 1150 3233 529 
Q 2819 -91 2034 -91 
Q 1250 -91 836 529 
Q 422 1150 422 2328 
Q 422 3509 836 4129 
Q 1250 4750 2034 4750 
z
" transform="scale(0.015625)"/>
        <path id="DejaVuSans-2212" d="M 678 2272 
L 4684 2272 
L 4684 1741 
L 678 1741 
L 678 2272 
z
" transform="scale(0.015625)"/>
        <path id="DejaVuSans-33" d="M 2597 2516 
Q 3050 2419 3304 2112 
Q 3559 1806 3559 1356 
Q 3559 666 3084 287 
Q 2609 -91 1734 -91 
Q 1441 -91 1130 -33 
Q 819 25 488 141 
L 488 750 
Q 750 597 1062 519 
Q 1375 441 1716 441 
Q 2309 441 2620 675 
Q 2931 909 2931 1356 
Q 2931 1769 2642 2001 
Q 2353 2234 1838 2234 
L 1294 2234 
L 1294 2753 
L 1863 2753 
Q 2328 2753 2575 2939 
Q 2822 3125 2822 3475 
Q 2822 3834 2567 4026 
Q 2313 4219 1838 4219 
Q 1578 4219 1281 4162 
Q 984 4106 628 3988 
L 628 4550 
Q 988 4650 1302 4700 
Q 1616 4750 1894 4750 
Q 2613 4750 3031 4423 
Q 3450 4097 3450 3541 
Q 3450 3153 3228 2886 
Q 3006 2619 2597 2516 
z
" transform="scale(0.015625)"/>
       </defs>
       <use xlink:href="#DejaVuSans-31" transform="translate(0 0.765625)"/>
       <use xlink:href="#DejaVuSans-30" transform="translate(63.623047 0.765625)"/>
       <use xlink:href="#DejaVuSans-2212" transform="translate(128.203125 39.046875) scale(0.7)"/>
       <use xlink:href="#DejaVuSans-33" transform="translate(186.855469 39.046875) scale(0.7)"/>
      </g>
     </g>
    </g>
    <g id="xtick_2">
     <g id="line2d_3">
      <path d="M 105.674554 99.27104 
L 105.674554 12.9888 
" clip-path="url(#p7a692e6e7e)" style="fill: none; stroke: #b0b0b0; stroke-width: 0.8; stroke-linecap: square"/>
     </g>
     <g id="line2d_4">
      <g>
       <use xlink:href="#me1ab219a7a" x="105.674554" y="99.27104" style="stroke: #000000; stroke-width: 0.8"/>
      </g>
     </g>
     <g id="text_2">
      <!-- $\mathdefault{10^{-2}}$ -->
      <g transform="translate(93.924554 113.869478) scale(0.1 -0.1)">
       <defs>
        <path id="DejaVuSans-32" d="M 1228 531 
L 3431 531 
L 3431 0 
L 469 0 
L 469 531 
Q 828 903 1448 1529 
Q 2069 2156 2228 2338 
Q 2531 2678 2651 2914 
Q 2772 3150 2772 3378 
Q 2772 3750 2511 3984 
Q 2250 4219 1831 4219 
Q 1534 4219 1204 4116 
Q 875 4013 500 3803 
L 500 4441 
Q 881 4594 1212 4672 
Q 1544 4750 1819 4750 
Q 2544 4750 2975 4387 
Q 3406 4025 3406 3419 
Q 3406 3131 3298 2873 
Q 3191 2616 2906 2266 
Q 2828 2175 2409 1742 
Q 1991 1309 1228 531 
z
" transform="scale(0.015625)"/>
       </defs>
       <use xlink:href="#DejaVuSans-31" transform="translate(0 0.765625)"/>
       <use xlink:href="#DejaVuSans-30" transform="translate(63.623047 0.765625)"/>
       <use xlink:href="#DejaVuSans-2212" transform="translate(128.203125 39.046875) scale(0.7)"/>
       <use xlink:href="#DejaVuSans-32" transform="translate(186.855469 39.046875) scale(0.7)"/>
      </g>
     </g>
    </g>
    <g id="xtick_3">
     <g id="line2d_5">
      <path d="M 168.477274 99.27104 
L 168.477274 12.9888 
" clip-path="url(#p7a692e6e7e)" style="fill: none; stroke: #b0b0b0; stroke-width: 0.8; stroke-linecap: square"/>
     </g>
     <g id="line2d_6">
      <g>
       <use xlink:href="#me1ab219a7a" x="168.477274" y="99.27104" style="stroke: #000000; stroke-width: 0.8"/>
      </g>
     </g>
     <g id="text_3">
      <!-- $\mathdefault{10^{-1}}$ -->
      <g transform="translate(156.727274 113.869478) scale(0.1 -0.1)">
       <use xlink:href="#DejaVuSans-31" transform="translate(0 0.684375)"/>
       <use xlink:href="#DejaVuSans-30" transform="translate(63.623047 0.684375)"/>
       <use xlink:href="#DejaVuSans-2212" transform="translate(128.203125 38.965625) scale(0.7)"/>
       <use xlink:href="#DejaVuSans-31" transform="translate(186.855469 38.965625) scale(0.7)"/>
      </g>
     </g>
    </g>
    <g id="xtick_4">
     <g id="line2d_7">
      <path d="M 231.279995 99.27104 
L 231.279995 12.9888 
" clip-path="url(#p7a692e6e7e)" style="fill: none; stroke: #b0b0b0; stroke-width: 0.8; stroke-linecap: square"/>
     </g>
     <g id="line2d_8">
      <g>
       <use xlink:href="#me1ab219a7a" x="231.279995" y="99.27104" style="stroke: #000000; stroke-width: 0.8"/>
      </g>
     </g>
     <g id="text_4">
      <!-- $\mathdefault{10^{0}}$ -->
      <g transform="translate(222.479995 113.869478) scale(0.1 -0.1)">
       <use xlink:href="#DejaVuSans-31" transform="translate(0 0.765625)"/>
       <use xlink:href="#DejaVuSans-30" transform="translate(63.623047 0.765625)"/>
       <use xlink:href="#DejaVuSans-30" transform="translate(128.203125 39.046875) scale(0.7)"/>
      </g>
     </g>
    </g>
    <g id="xtick_5">
     <g id="line2d_9">
      <path d="M 294.082715 99.27104 
L 294.082715 12.9888 
" clip-path="url(#p7a692e6e7e)" style="fill: none; stroke: #b0b0b0; stroke-width: 0.8; stroke-linecap: square"/>
     </g>
     <g id="line2d_10">
      <g>
       <use xlink:href="#me1ab219a7a" x="294.082715" y="99.27104" style="stroke: #000000; stroke-width: 0.8"/>
      </g>
     </g>
     <g id="text_5">
      <!-- $\mathdefault{10^{1}}$ -->
      <g transform="translate(285.282715 113.869478) scale(0.1 -0.1)">
       <use xlink:href="#DejaVuSans-31" transform="translate(0 0.684375)"/>
       <use xlink:href="#DejaVuSans-30" transform="translate(63.623047 0.684375)"/>
       <use xlink:href="#DejaVuSans-31" transform="translate(128.203125 38.965625) scale(0.7)"/>
      </g>
     </g>
    </g>
    <g id="xtick_6">
     <g id="line2d_11">
      <path d="M 356.885436 99.27104 
L 356.885436 12.9888 
" clip-path="url(#p7a692e6e7e)" style="fill: none; stroke: #b0b0b0; stroke-width: 0.8; stroke-linecap: square"/>
     </g>
     <g id="line2d_12">
      <g>
       <use xlink:href="#me1ab219a7a" x="356.885436" y="99.27104" style="stroke: #000000; stroke-width: 0.8"/>
      </g>
     </g>
     <g id="text_6">
      <!-- $\mathdefault{10^{2}}$ -->
      <g transform="translate(348.085436 113.869478) scale(0.1 -0.1)">
       <use xlink:href="#DejaVuSans-31" transform="translate(0 0.765625)"/>
       <use xlink:href="#DejaVuSans-30" transform="translate(63.623047 0.765625)"/>
       <use xlink:href="#DejaVuSans-32" transform="translate(128.203125 39.046875) scale(0.7)"/>
      </g>
     </g>
    </g>
    <g id="xtick_7">
     <g id="line2d_13">
      <path d="M 419.688156 99.27104 
L 419.688156 12.9888 
" clip-path="url(#p7a692e6e7e)" style="fill: none; stroke: #b0b0b0; stroke-width: 0.8; stroke-linecap: square"/>
     </g>
     <g id="line2d_14">
      <g>
       <use xlink:href="#me1ab219a7a" x="419.688156" y="99.27104" style="stroke: #000000; stroke-width: 0.8"/>
      </g>
     </g>
     <g id="text_7">
      <!-- $\mathdefault{10^{3}}$ -->
      <g transform="translate(410.888156 113.869478) scale(0.1 -0.1)">
       <use xlink:href="#DejaVuSans-31" transform="translate(0 0.765625)"/>
       <use xlink:href="#DejaVuSans-30" transform="translate(63.623047 0.765625)"/>
       <use xlink:href="#DejaVuSans-33" transform="translate(128.203125 39.046875) scale(0.7)"/>
      </g>
     </g>
    </g>
    <g id="xtick_8">
     <g id="line2d_15">
      <defs>
       <path id="me7850943d9" d="M 0 0 
L 0 2 
" style="stroke: #000000; stroke-width: 0.6"/>
      </defs>
      <g>
       <use xlink:href="#me7850943d9" x="61.777336" y="99.27104" style="stroke: #000000; stroke-width: 0.6"/>
      </g>
     </g>
    </g>
    <g id="xtick_9">
     <g id="line2d_16">
      <g>
       <use xlink:href="#me7850943d9" x="72.836346" y="99.27104" style="stroke: #000000; stroke-width: 0.6"/>
      </g>
     </g>
    </g>
    <g id="xtick_10">
     <g id="line2d_17">
      <g>
       <use xlink:href="#me7850943d9" x="80.682839" y="99.27104" style="stroke: #000000; stroke-width: 0.6"/>
      </g>
     </g>
    </g>
    <g id="xtick_11">
     <g id="line2d_18">
      <g>
       <use xlink:href="#me7850943d9" x="86.769051" y="99.27104" style="stroke: #000000; stroke-width: 0.6"/>
      </g>
     </g>
    </g>
    <g id="xtick_12">
     <g id="line2d_19">
      <g>
       <use xlink:href="#me7850943d9" x="91.741849" y="99.27104" style="stroke: #000000; stroke-width: 0.6"/>
      </g>
     </g>
    </g>
    <g id="xtick_13">
     <g id="line2d_20">
      <g>
       <use xlink:href="#me7850943d9" x="95.946289" y="99.27104" style="stroke: #000000; stroke-width: 0.6"/>
      </g>
     </g>
    </g>
    <g id="xtick_14">
     <g id="line2d_21">
      <g>
       <use xlink:href="#me7850943d9" x="99.588341" y="99.27104" style="stroke: #000000; stroke-width: 0.6"/>
      </g>
     </g>
    </g>
    <g id="xtick_15">
     <g id="line2d_22">
      <g>
       <use xlink:href="#me7850943d9" x="102.800859" y="99.27104" style="stroke: #000000; stroke-width: 0.6"/>
      </g>
     </g>
    </g>
    <g id="xtick_16">
     <g id="line2d_23">
      <g>
       <use xlink:href="#me7850943d9" x="124.580056" y="99.27104" style="stroke: #000000; stroke-width: 0.6"/>
      </g>
     </g>
    </g>
    <g id="xtick_17">
     <g id="line2d_24">
      <g>
       <use xlink:href="#me7850943d9" x="135.639067" y="99.27104" style="stroke: #000000; stroke-width: 0.6"/>
      </g>
     </g>
    </g>
    <g id="xtick_18">
     <g id="line2d_25">
      <g>
       <use xlink:href="#me7850943d9" x="143.485559" y="99.27104" style="stroke: #000000; stroke-width: 0.6"/>
      </g>
     </g>
    </g>
    <g id="xtick_19">
     <g id="line2d_26">
      <g>
       <use xlink:href="#me7850943d9" x="149.571772" y="99.27104" style="stroke: #000000; stroke-width: 0.6"/>
      </g>
     </g>
    </g>
    <g id="xtick_20">
     <g id="line2d_27">
      <g>
       <use xlink:href="#me7850943d9" x="154.544569" y="99.27104" style="stroke: #000000; stroke-width: 0.6"/>
      </g>
     </g>
    </g>
    <g id="xtick_21">
     <g id="line2d_28">
      <g>
       <use xlink:href="#me7850943d9" x="158.74901" y="99.27104" style="stroke: #000000; stroke-width: 0.6"/>
      </g>
     </g>
    </g>
    <g id="xtick_22">
     <g id="line2d_29">
      <g>
       <use xlink:href="#me7850943d9" x="162.391062" y="99.27104" style="stroke: #000000; stroke-width: 0.6"/>
      </g>
     </g>
    </g>
    <g id="xtick_23">
     <g id="line2d_30">
      <g>
       <use xlink:href="#me7850943d9" x="165.603579" y="99.27104" style="stroke: #000000; stroke-width: 0.6"/>
      </g>
     </g>
    </g>
    <g id="xtick_24">
     <g id="line2d_31">
      <g>
       <use xlink:href="#me7850943d9" x="187.382777" y="99.27104" style="stroke: #000000; stroke-width: 0.6"/>
      </g>
     </g>
    </g>
    <g id="xtick_25">
     <g id="line2d_32">
      <g>
       <use xlink:href="#me7850943d9" x="198.441787" y="99.27104" style="stroke: #000000; stroke-width: 0.6"/>
      </g>
     </g>
    </g>
    <g id="xtick_26">
     <g id="line2d_33">
      <g>
       <use xlink:href="#me7850943d9" x="206.28828" y="99.27104" style="stroke: #000000; stroke-width: 0.6"/>
      </g>
     </g>
    </g>
    <g id="xtick_27">
     <g id="line2d_34">
      <g>
       <use xlink:href="#me7850943d9" x="212.374492" y="99.27104" style="stroke: #000000; stroke-width: 0.6"/>
      </g>
     </g>
    </g>
    <g id="xtick_28">
     <g id="line2d_35">
      <g>
       <use xlink:href="#me7850943d9" x="217.34729" y="99.27104" style="stroke: #000000; stroke-width: 0.6"/>
      </g>
     </g>
    </g>
    <g id="xtick_29">
     <g id="line2d_36">
      <g>
       <use xlink:href="#me7850943d9" x="221.55173" y="99.27104" style="stroke: #000000; stroke-width: 0.6"/>
      </g>
     </g>
    </g>
    <g id="xtick_30">
     <g id="line2d_37">
      <g>
       <use xlink:href="#me7850943d9" x="225.193782" y="99.27104" style="stroke: #000000; stroke-width: 0.6"/>
      </g>
     </g>
    </g>
    <g id="xtick_31">
     <g id="line2d_38">
      <g>
       <use xlink:href="#me7850943d9" x="228.4063" y="99.27104" style="stroke: #000000; stroke-width: 0.6"/>
      </g>
     </g>
    </g>
    <g id="xtick_32">
     <g id="line2d_39">
      <g>
       <use xlink:href="#me7850943d9" x="250.185497" y="99.27104" style="stroke: #000000; stroke-width: 0.6"/>
      </g>
     </g>
    </g>
    <g id="xtick_33">
     <g id="line2d_40">
      <g>
       <use xlink:href="#me7850943d9" x="261.244507" y="99.27104" style="stroke: #000000; stroke-width: 0.6"/>
      </g>
     </g>
    </g>
    <g id="xtick_34">
     <g id="line2d_41">
      <g>
       <use xlink:href="#me7850943d9" x="269.091" y="99.27104" style="stroke: #000000; stroke-width: 0.6"/>
      </g>
     </g>
    </g>
    <g id="xtick_35">
     <g id="line2d_42">
      <g>
       <use xlink:href="#me7850943d9" x="275.177212" y="99.27104" style="stroke: #000000; stroke-width: 0.6"/>
      </g>
     </g>
    </g>
    <g id="xtick_36">
     <g id="line2d_43">
      <g>
       <use xlink:href="#me7850943d9" x="280.15001" y="99.27104" style="stroke: #000000; stroke-width: 0.6"/>
      </g>
     </g>
    </g>
    <g id="xtick_37">
     <g id="line2d_44">
      <g>
       <use xlink:href="#me7850943d9" x="284.354451" y="99.27104" style="stroke: #000000; stroke-width: 0.6"/>
      </g>
     </g>
    </g>
    <g id="xtick_38">
     <g id="line2d_45">
      <g>
       <use xlink:href="#me7850943d9" x="287.996503" y="99.27104" style="stroke: #000000; stroke-width: 0.6"/>
      </g>
     </g>
    </g>
    <g id="xtick_39">
     <g id="line2d_46">
      <g>
       <use xlink:href="#me7850943d9" x="291.20902" y="99.27104" style="stroke: #000000; stroke-width: 0.6"/>
      </g>
     </g>
    </g>
    <g id="xtick_40">
     <g id="line2d_47">
      <g>
       <use xlink:href="#me7850943d9" x="312.988218" y="99.27104" style="stroke: #000000; stroke-width: 0.6"/>
      </g>
     </g>
    </g>
    <g id="xtick_41">
     <g id="line2d_48">
      <g>
       <use xlink:href="#me7850943d9" x="324.047228" y="99.27104" style="stroke: #000000; stroke-width: 0.6"/>
      </g>
     </g>
    </g>
    <g id="xtick_42">
     <g id="line2d_49">
      <g>
       <use xlink:href="#me7850943d9" x="331.89372" y="99.27104" style="stroke: #000000; stroke-width: 0.6"/>
      </g>
     </g>
    </g>
    <g id="xtick_43">
     <g id="line2d_50">
      <g>
       <use xlink:href="#me7850943d9" x="337.979933" y="99.27104" style="stroke: #000000; stroke-width: 0.6"/>
      </g>
     </g>
    </g>
    <g id="xtick_44">
     <g id="line2d_51">
      <g>
       <use xlink:href="#me7850943d9" x="342.952731" y="99.27104" style="stroke: #000000; stroke-width: 0.6"/>
      </g>
     </g>
    </g>
    <g id="xtick_45">
     <g id="line2d_52">
      <g>
       <use xlink:href="#me7850943d9" x="347.157171" y="99.27104" style="stroke: #000000; stroke-width: 0.6"/>
      </g>
     </g>
    </g>
    <g id="xtick_46">
     <g id="line2d_53">
      <g>
       <use xlink:href="#me7850943d9" x="350.799223" y="99.27104" style="stroke: #000000; stroke-width: 0.6"/>
      </g>
     </g>
    </g>
    <g id="xtick_47">
     <g id="line2d_54">
      <g>
       <use xlink:href="#me7850943d9" x="354.011741" y="99.27104" style="stroke: #000000; stroke-width: 0.6"/>
      </g>
     </g>
    </g>
    <g id="xtick_48">
     <g id="line2d_55">
      <g>
       <use xlink:href="#me7850943d9" x="375.790938" y="99.27104" style="stroke: #000000; stroke-width: 0.6"/>
      </g>
     </g>
    </g>
    <g id="xtick_49">
     <g id="line2d_56">
      <g>
       <use xlink:href="#me7850943d9" x="386.849948" y="99.27104" style="stroke: #000000; stroke-width: 0.6"/>
      </g>
     </g>
    </g>
    <g id="xtick_50">
     <g id="line2d_57">
      <g>
       <use xlink:href="#me7850943d9" x="394.696441" y="99.27104" style="stroke: #000000; stroke-width: 0.6"/>
      </g>
     </g>
    </g>
    <g id="xtick_51">
     <g id="line2d_58">
      <g>
       <use xlink:href="#me7850943d9" x="400.782653" y="99.27104" style="stroke: #000000; stroke-width: 0.6"/>
      </g>
     </g>
    </g>
    <g id="xtick_52">
     <g id="line2d_59">
      <g>
       <use xlink:href="#me7850943d9" x="405.755451" y="99.27104" style="stroke: #000000; stroke-width: 0.6"/>
      </g>
     </g>
    </g>
    <g id="xtick_53">
     <g id="line2d_60">
      <g>
       <use xlink:href="#me7850943d9" x="409.959892" y="99.27104" style="stroke: #000000; stroke-width: 0.6"/>
      </g>
     </g>
    </g>
    <g id="xtick_54">
     <g id="line2d_61">
      <g>
       <use xlink:href="#me7850943d9" x="413.601944" y="99.27104" style="stroke: #000000; stroke-width: 0.6"/>
      </g>
     </g>
    </g>
    <g id="xtick_55">
     <g id="line2d_62">
      <g>
       <use xlink:href="#me7850943d9" x="416.814461" y="99.27104" style="stroke: #000000; stroke-width: 0.6"/>
      </g>
     </g>
    </g>
   </g>
   <g id="matplotlib.axis_2">
    <g id="ytick_1">
     <g id="line2d_63">
      <path d="M 42.871833 99.27104 
L 419.688156 99.27104 
" clip-path="url(#p7a692e6e7e)" style="fill: none; stroke: #b0b0b0; stroke-width: 0.8; stroke-linecap: square"/>
     </g>
     <g id="line2d_64">
      <defs>
       <path id="mac61cad522" d="M 0 0 
L -3.5 0 
" style="stroke: #000000; stroke-width: 0.8"/>
      </defs>
      <g>
       <use xlink:href="#mac61cad522" x="42.871833" y="99.27104" style="stroke: #000000; stroke-width: 0.8"/>
      </g>
     </g>
     <g id="text_8">
      <!-- −1.0 -->
      <g transform="translate(11.589021 103.070259) scale(0.1 -0.1)">
       <defs>
        <path id="DejaVuSans-2e" d="M 684 794 
L 1344 794 
L 1344 0 
L 684 0 
L 684 794 
z
" transform="scale(0.015625)"/>
       </defs>
       <use xlink:href="#DejaVuSans-2212"/>
       <use xlink:href="#DejaVuSans-31" transform="translate(83.789062 0)"/>
       <use xlink:href="#DejaVuSans-2e" transform="translate(147.412109 0)"/>
       <use xlink:href="#DejaVuSans-30" transform="translate(179.199219 0)"/>
      </g>
     </g>
    </g>
    <g id="ytick_2">
     <g id="line2d_65">
      <path d="M 42.871833 77.70048 
L 419.688156 77.70048 
" clip-path="url(#p7a692e6e7e)" style="fill: none; stroke: #b0b0b0; stroke-width: 0.8; stroke-linecap: square"/>
     </g>
     <g id="line2d_66">
      <g>
       <use xlink:href="#mac61cad522" x="42.871833" y="77.70048" style="stroke: #000000; stroke-width: 0.8"/>
      </g>
     </g>
     <g id="text_9">
      <!-- −0.5 -->
      <g transform="translate(11.589021 81.499699) scale(0.1 -0.1)">
       <defs>
        <path id="DejaVuSans-35" d="M 691 4666 
L 3169 4666 
L 3169 4134 
L 1269 4134 
L 1269 2991 
Q 1406 3038 1543 3061 
Q 1681 3084 1819 3084 
Q 2600 3084 3056 2656 
Q 3513 2228 3513 1497 
Q 3513 744 3044 326 
Q 2575 -91 1722 -91 
Q 1428 -91 1123 -41 
Q 819 9 494 109 
L 494 744 
Q 775 591 1075 516 
Q 1375 441 1709 441 
Q 2250 441 2565 725 
Q 2881 1009 2881 1497 
Q 2881 1984 2565 2268 
Q 2250 2553 1709 2553 
Q 1456 2553 1204 2497 
Q 953 2441 691 2322 
L 691 4666 
z
" transform="scale(0.015625)"/>
       </defs>
       <use xlink:href="#DejaVuSans-2212"/>
       <use xlink:href="#DejaVuSans-30" transform="translate(83.789062 0)"/>
       <use xlink:href="#DejaVuSans-2e" transform="translate(147.412109 0)"/>
       <use xlink:href="#DejaVuSans-35" transform="translate(179.199219 0)"/>
      </g>
     </g>
    </g>
    <g id="ytick_3">
     <g id="line2d_67">
      <path d="M 42.871833 56.12992 
L 419.688156 56.12992 
" clip-path="url(#p7a692e6e7e)" style="fill: none; stroke: #b0b0b0; stroke-width: 0.8; stroke-linecap: square"/>
     </g>
     <g id="line2d_68">
      <g>
       <use xlink:href="#mac61cad522" x="42.871833" y="56.12992" style="stroke: #000000; stroke-width: 0.8"/>
      </g>
     </g>
     <g id="text_10">
      <!-- 0.0 -->
      <g transform="translate(19.968708 59.929139) scale(0.1 -0.1)">
       <use xlink:href="#DejaVuSans-30"/>
       <use xlink:href="#DejaVuSans-2e" transform="translate(63.623047 0)"/>
       <use xlink:href="#DejaVuSans-30" transform="translate(95.410156 0)"/>
      </g>
     </g>
    </g>
    <g id="ytick_4">
     <g id="line2d_69">
      <path d="M 42.871833 34.55936 
L 419.688156 34.55936 
" clip-path="url(#p7a692e6e7e)" style="fill: none; stroke: #b0b0b0; stroke-width: 0.8; stroke-linecap: square"/>
     </g>
     <g id="line2d_70">
      <g>
       <use xlink:href="#mac61cad522" x="42.871833" y="34.55936" style="stroke: #000000; stroke-width: 0.8"/>
      </g>
     </g>
     <g id="text_11">
      <!-- 0.5 -->
      <g transform="translate(19.968708 38.358579) scale(0.1 -0.1)">
       <use xlink:href="#DejaVuSans-30"/>
       <use xlink:href="#DejaVuSans-2e" transform="translate(63.623047 0)"/>
       <use xlink:href="#DejaVuSans-35" transform="translate(95.410156 0)"/>
      </g>
     </g>
    </g>
    <g id="ytick_5">
     <g id="line2d_71">
      <path d="M 42.871833 12.9888 
L 419.688156 12.9888 
" clip-path="url(#p7a692e6e7e)" style="fill: none; stroke: #b0b0b0; stroke-width: 0.8; stroke-linecap: square"/>
     </g>
     <g id="line2d_72">
      <g>
       <use xlink:href="#mac61cad522" x="42.871833" y="12.9888" style="stroke: #000000; stroke-width: 0.8"/>
      </g>
     </g>
     <g id="text_12">
      <!-- 1.0 -->
      <g transform="translate(19.968708 16.788019) scale(0.1 -0.1)">
       <use xlink:href="#DejaVuSans-31"/>
       <use xlink:href="#DejaVuSans-2e" transform="translate(63.623047 0)"/>
       <use xlink:href="#DejaVuSans-30" transform="translate(95.410156 0)"/>
      </g>
     </g>
    </g>
   </g>
   <g id="line2d_73">
    <defs>
     <path id="m58c1be92e3" d="M 0 3 
C 0.795609 3 1.55874 2.683901 2.12132 2.12132 
C 2.683901 1.55874 3 0.795609 3 0 
C 3 -0.795609 2.683901 -1.55874 2.12132 -2.12132 
C 1.55874 -2.683901 0.795609 -3 0 -3 
C -0.795609 -3 -1.55874 -2.683901 -2.12132 -2.12132 
C -2.683901 -1.55874 -3 -0.795609 -3 0 
C -3 0.795609 -2.683901 1.55874 -2.12132 2.12132 
C -1.55874 2.683901 -0.795609 3 0 3 
z
" style="stroke: #000000"/>
    </defs>
    <g clip-path="url(#p7a692e6e7e)">
     <use xlink:href="#m58c1be92e3" x="408.698959" y="56.12992" style="fill: #40925b; stroke: #000000"/>
     <use xlink:href="#m58c1be92e3" x="370.671604" y="56.12992" style="fill: #40925b; stroke: #000000"/>
     <use xlink:href="#m58c1be92e3" x="348.190313" y="56.12992" style="fill: #40925b; stroke: #000000"/>
     <use xlink:href="#m58c1be92e3" x="331.983011" y="56.12992" style="fill: #40925b; stroke: #000000"/>
     <use xlink:href="#m58c1be92e3" x="319.139249" y="56.12992" style="fill: #40925b; stroke: #000000"/>
     <use xlink:href="#m58c1be92e3" x="308.357254" y="56.12992" style="fill: #40925b; stroke: #000000"/>
     <use xlink:href="#m58c1be92e3" x="298.936503" y="56.12992" style="fill: #40925b; stroke: #000000"/>
     <use xlink:href="#m58c1be92e3" x="290.451861" y="56.12992" style="fill: #40925b; stroke: #000000"/>
     <use xlink:href="#m58c1be92e3" x="282.62107" y="56.12992" style="fill: #40925b; stroke: #000000"/>
     <use xlink:href="#m58c1be92e3" x="275.242031" y="56.12992" style="fill: #40925b; stroke: #000000"/>
     <use xlink:href="#m58c1be92e3" x="268.159485" y="56.12992" style="fill: #40925b; stroke: #000000"/>
     <use xlink:href="#m58c1be92e3" x="261.245382" y="56.12966" style="fill: #40925b; stroke: #000000"/>
     <use xlink:href="#m58c1be92e3" x="254.385943" y="56.108829" style="fill: #40925b; stroke: #000000"/>
     <use xlink:href="#m58c1be92e3" x="247.471841" y="55.833786" style="fill: #40925b; stroke: #000000"/>
     <use xlink:href="#m58c1be92e3" x="240.389295" y="53.746084" style="fill: #40925b; stroke: #000000"/>
     <use xlink:href="#m58c1be92e3" x="233.010255" y="45.968549" style="fill: #40925b; stroke: #000000"/>
     <use xlink:href="#m58c1be92e3" x="225.179465" y="33.935719" style="fill: #40925b; stroke: #000000"/>
     <use xlink:href="#m58c1be92e3" x="216.694823" y="22.812176" style="fill: #40925b; stroke: #000000"/>
     <use xlink:href="#m58c1be92e3" x="207.274071" y="25.183441" style="fill: #40925b; stroke: #000000"/>
     <use xlink:href="#m58c1be92e3" x="196.492077" y="41.269854" style="fill: #40925b; stroke: #000000"/>
     <use xlink:href="#m58c1be92e3" x="183.648314" y="52.542151" style="fill: #40925b; stroke: #000000"/>
     <use xlink:href="#m58c1be92e3" x="167.441012" y="55.718103" style="fill: #40925b; stroke: #000000"/>
     <use xlink:href="#m58c1be92e3" x="144.959722" y="56.113482" style="fill: #40925b; stroke: #000000"/>
     <use xlink:href="#m58c1be92e3" x="106.932366" y="56.129857" style="fill: #40925b; stroke: #000000"/>
    </g>
   </g>
   <g id="line2d_74">
    <defs>
     <path id="mdb72a3ae88" d="M 0 3 
C 0.795609 3 1.55874 2.683901 2.12132 2.12132 
C 2.683901 1.55874 3 0.795609 3 0 
C 3 -0.795609 2.683901 -1.55874 2.12132 -2.12132 
C 1.55874 -2.683901 0.795609 -3 0 -3 
C -0.795609 -3 -1.55874 -2.683901 -2.12132 -2.12132 
C -2.683901 -1.55874 -3 -0.795609 -3 0 
C -3 0.795609 -2.683901 1.55874 -2.12132 2.12132 
C -1.55874 2.683901 -0.795609 3 0 3 
z
" style="stroke: #000000"/>
    </defs>
    <g clip-path="url(#p7a692e6e7e)">
     <use xlink:href="#mdb72a3ae88" x="408.698959" y="56.12992" style="fill: #69bbac; stroke: #000000"/>
     <use xlink:href="#mdb72a3ae88" x="370.671604" y="56.12992" style="fill: #69bbac; stroke: #000000"/>
     <use xlink:href="#mdb72a3ae88" x="348.190313" y="56.12992" style="fill: #69bbac; stroke: #000000"/>
     <use xlink:href="#mdb72a3ae88" x="331.983011" y="56.12992" style="fill: #69bbac; stroke: #000000"/>
     <use xlink:href="#mdb72a3ae88" x="319.139249" y="56.12992" style="fill: #69bbac; stroke: #000000"/>
     <use xlink:href="#mdb72a3ae88" x="308.357254" y="56.12992" style="fill: #69bbac; stroke: #000000"/>
     <use xlink:href="#mdb72a3ae88" x="298.936503" y="56.12992" style="fill: #69bbac; stroke: #000000"/>
     <use xlink:href="#mdb72a3ae88" x="290.451861" y="56.12992" style="fill: #69bbac; stroke: #000000"/>
     <use xlink:href="#mdb72a3ae88" x="282.62107" y="56.12992" style="fill: #69bbac; stroke: #000000"/>
     <use xlink:href="#mdb72a3ae88" x="275.242031" y="56.12992" style="fill: #69bbac; stroke: #000000"/>
     <use xlink:href="#mdb72a3ae88" x="268.159485" y="56.12992" style="fill: #69bbac; stroke: #000000"/>
     <use xlink:href="#mdb72a3ae88" x="261.245382" y="56.130086" style="fill: #69bbac; stroke: #000000"/>
     <use xlink:href="#mdb72a3ae88" x="254.385943" y="56.143395" style="fill: #69bbac; stroke: #000000"/>
     <use xlink:href="#mdb72a3ae88" x="247.471841" y="56.319113" style="fill: #69bbac; stroke: #000000"/>
     <use xlink:href="#mdb72a3ae88" x="240.389295" y="57.652897" style="fill: #69bbac; stroke: #000000"/>
     <use xlink:href="#mdb72a3ae88" x="233.010255" y="62.621782" style="fill: #69bbac; stroke: #000000"/>
     <use xlink:href="#mdb72a3ae88" x="225.179465" y="70.309275" style="fill: #69bbac; stroke: #000000"/>
     <use xlink:href="#mdb72a3ae88" x="216.694823" y="77.415846" style="fill: #69bbac; stroke: #000000"/>
     <use xlink:href="#mdb72a3ae88" x="207.274071" y="75.9009" style="fill: #69bbac; stroke: #000000"/>
     <use xlink:href="#mdb72a3ae88" x="196.492077" y="65.623668" style="fill: #69bbac; stroke: #000000"/>
     <use xlink:href="#mdb72a3ae88" x="183.648314" y="58.422062" style="fill: #69bbac; stroke: #000000"/>
     <use xlink:href="#mdb72a3ae88" x="167.441012" y="56.39302" style="fill: #69bbac; stroke: #000000"/>
     <use xlink:href="#mdb72a3ae88" x="144.959722" y="56.140422" style="fill: #69bbac; stroke: #000000"/>
     <use xlink:href="#mdb72a3ae88" x="106.932366" y="56.12996" style="fill: #69bbac; stroke: #000000"/>
    </g>
   </g>
   <g id="line2d_75">
    <defs>
     <path id="m245dacb774" d="M 0 3 
C 0.795609 3 1.55874 2.683901 2.12132 2.12132 
C 2.683901 1.55874 3 0.795609 3 0 
C 3 -0.795609 2.683901 -1.55874 2.12132 -2.12132 
C 1.55874 -2.683901 0.795609 -3 0 -3 
C -0.795609 -3 -1.55874 -2.683901 -2.12132 -2.12132 
C -2.683901 -1.55874 -3 -0.795609 -3 0 
C -3 0.795609 -2.683901 1.55874 -2.12132 2.12132 
C -1.55874 2.683901 -0.795609 3 0 3 
z
" style="stroke: #000000"/>
    </defs>
    <g clip-path="url(#p7a692e6e7e)">
     <use xlink:href="#m245dacb774" x="408.698959" y="56.12992" style="fill: #adad5b; stroke: #000000"/>
     <use xlink:href="#m245dacb774" x="370.671604" y="56.12992" style="fill: #adad5b; stroke: #000000"/>
     <use xlink:href="#m245dacb774" x="348.190313" y="56.12992" style="fill: #adad5b; stroke: #000000"/>
     <use xlink:href="#m245dacb774" x="331.983011" y="56.12992" style="fill: #adad5b; stroke: #000000"/>
     <use xlink:href="#m245dacb774" x="319.139249" y="56.12992" style="fill: #adad5b; stroke: #000000"/>
     <use xlink:href="#m245dacb774" x="308.357254" y="56.12992" style="fill: #adad5b; stroke: #000000"/>
     <use xlink:href="#m245dacb774" x="298.936503" y="56.12992" style="fill: #adad5b; stroke: #000000"/>
     <use xlink:href="#m245dacb774" x="290.451861" y="56.12992" style="fill: #adad5b; stroke: #000000"/>
     <use xlink:href="#m245dacb774" x="282.62107" y="56.12992" style="fill: #adad5b; stroke: #000000"/>
     <use xlink:href="#m245dacb774" x="275.242031" y="56.12992" style="fill: #adad5b; stroke: #000000"/>
     <use xlink:href="#m245dacb774" x="268.159485" y="56.12992" style="fill: #adad5b; stroke: #000000"/>
     <use xlink:href="#m245dacb774" x="261.245382" y="56.130139" style="fill: #adad5b; stroke: #000000"/>
     <use xlink:href="#m245dacb774" x="254.385943" y="56.147745" style="fill: #adad5b; stroke: #000000"/>
     <use xlink:href="#m245dacb774" x="247.471841" y="56.380199" style="fill: #adad5b; stroke: #000000"/>
     <use xlink:href="#m245dacb774" x="240.389295" y="58.144629" style="fill: #adad5b; stroke: #000000"/>
     <use xlink:href="#m245dacb774" x="233.010255" y="64.717846" style="fill: #adad5b; stroke: #000000"/>
     <use xlink:href="#m245dacb774" x="225.179465" y="74.887444" style="fill: #adad5b; stroke: #000000"/>
     <use xlink:href="#m245dacb774" x="216.694823" y="84.288553" style="fill: #adad5b; stroke: #000000"/>
     <use xlink:href="#m245dacb774" x="207.274071" y="82.284469" style="fill: #adad5b; stroke: #000000"/>
     <use xlink:href="#m245dacb774" x="196.492077" y="68.688968" style="fill: #adad5b; stroke: #000000"/>
     <use xlink:href="#m245dacb774" x="183.648314" y="59.162138" style="fill: #adad5b; stroke: #000000"/>
     <use xlink:href="#m245dacb774" x="167.441012" y="56.477969" style="fill: #adad5b; stroke: #000000"/>
     <use xlink:href="#m245dacb774" x="144.959722" y="56.143813" style="fill: #adad5b; stroke: #000000"/>
     <use xlink:href="#m245dacb774" x="106.932366" y="56.129973" style="fill: #adad5b; stroke: #000000"/>
    </g>
   </g>
   <g id="line2d_76">
    <defs>
     <path id="me2fc671668" d="M 0 3 
C 0.795609 3 1.55874 2.683901 2.12132 2.12132 
C 2.683901 1.55874 3 0.795609 3 0 
C 3 -0.795609 2.683901 -1.55874 2.12132 -2.12132 
C 1.55874 -2.683901 0.795609 -3 0 -3 
C -0.795609 -3 -1.55874 -2.683901 -2.12132 -2.12132 
C -2.683901 -1.55874 -3 -0.795609 -3 0 
C -3 0.795609 -2.683901 1.55874 -2.12132 2.12132 
C -1.55874 2.683901 -0.795609 3 0 3 
z
" style="stroke: #000000"/>
    </defs>
    <g clip-path="url(#p7a692e6e7e)">
     <use xlink:href="#me2fc671668" x="408.698959" y="56.12992" style="fill: #e3d69b; stroke: #000000"/>
     <use xlink:href="#me2fc671668" x="370.671604" y="56.12992" style="fill: #e3d69b; stroke: #000000"/>
     <use xlink:href="#me2fc671668" x="348.190313" y="56.12992" style="fill: #e3d69b; stroke: #000000"/>
     <use xlink:href="#me2fc671668" x="331.983011" y="56.12992" style="fill: #e3d69b; stroke: #000000"/>
     <use xlink:href="#me2fc671668" x="319.139249" y="56.12992" style="fill: #e3d69b; stroke: #000000"/>
     <use xlink:href="#me2fc671668" x="308.357254" y="56.12992" style="fill: #e3d69b; stroke: #000000"/>
     <use xlink:href="#me2fc671668" x="298.936503" y="56.12992" style="fill: #e3d69b; stroke: #000000"/>
     <use xlink:href="#me2fc671668" x="290.451861" y="56.12992" style="fill: #e3d69b; stroke: #000000"/>
     <use xlink:href="#me2fc671668" x="282.62107" y="56.12992" style="fill: #e3d69b; stroke: #000000"/>
     <use xlink:href="#me2fc671668" x="275.242031" y="56.12992" style="fill: #e3d69b; stroke: #000000"/>
     <use xlink:href="#me2fc671668" x="268.159485" y="56.12992" style="fill: #e3d69b; stroke: #000000"/>
     <use xlink:href="#me2fc671668" x="261.245382" y="56.129883" style="fill: #e3d69b; stroke: #000000"/>
     <use xlink:href="#me2fc671668" x="254.385943" y="56.126907" style="fill: #e3d69b; stroke: #000000"/>
     <use xlink:href="#me2fc671668" x="247.471841" y="56.087615" style="fill: #e3d69b; stroke: #000000"/>
     <use xlink:href="#me2fc671668" x="240.389295" y="55.789372" style="fill: #e3d69b; stroke: #000000"/>
     <use xlink:href="#me2fc671668" x="233.010255" y="54.678296" style="fill: #e3d69b; stroke: #000000"/>
     <use xlink:href="#me2fc671668" x="225.179465" y="52.95932" style="fill: #e3d69b; stroke: #000000"/>
     <use xlink:href="#me2fc671668" x="216.694823" y="51.370242" style="fill: #e3d69b; stroke: #000000"/>
     <use xlink:href="#me2fc671668" x="207.274071" y="51.708994" style="fill: #e3d69b; stroke: #000000"/>
     <use xlink:href="#me2fc671668" x="196.492077" y="54.007053" style="fill: #e3d69b; stroke: #000000"/>
     <use xlink:href="#me2fc671668" x="183.648314" y="55.617382" style="fill: #e3d69b; stroke: #000000"/>
     <use xlink:href="#me2fc671668" x="167.441012" y="56.071089" style="fill: #e3d69b; stroke: #000000"/>
     <use xlink:href="#me2fc671668" x="144.959722" y="56.127572" style="fill: #e3d69b; stroke: #000000"/>
     <use xlink:href="#me2fc671668" x="106.932366" y="56.129911" style="fill: #e3d69b; stroke: #000000"/>
    </g>
   </g>
   <g id="patch_3">
    <path d="M 42.871833 99.27104 
L 42.871833 12.9888 
" style="fill: none; stroke: #000000; stroke-width: 0.8; stroke-linejoin: miter; stroke-linecap: square"/>
   </g>
   <g id="patch_4">
    <path d="M 419.688156 99.27104 
L 419.688156 12.9888 
" style="fill: none; stroke: #000000; stroke-width: 0.8; stroke-linejoin: miter; stroke-linecap: square"/>
   </g>
   <g id="patch_5">
    <path d="M 42.871833 99.27104 
L 419.688156 99.27104 
" style="fill: none; stroke: #000000; stroke-width: 0.8; stroke-linejoin: miter; stroke-linecap: square"/>
   </g>
   <g id="patch_6">
    <path d="M 42.871833 12.9888 
L 419.688156 12.9888 
" style="fill: none; stroke: #000000; stroke-width: 0.8; stroke-linejoin: miter; stroke-linecap: square"/>
   </g>
   <g id="legend_1">
    <g id="patch_7">
     <path d="M 49.871833 79.7013 
L 97.171833 79.7013 
Q 99.171833 79.7013 99.171833 77.7013 
L 99.171833 19.9888 
Q 99.171833 17.9888 97.171833 17.9888 
L 49.871833 17.9888 
Q 47.871833 17.9888 47.871833 19.9888 
L 47.871833 77.7013 
Q 47.871833 79.7013 49.871833 79.7013 
z
" style="fill: #ffffff; opacity: 0.8; stroke: #cccccc; stroke-linejoin: miter"/>
    </g>
    <g id="line2d_77">
     <g>
      <use xlink:href="#m58c1be92e3" x="61.871833" y="26.087238" style="fill: #40925b; stroke: #000000"/>
     </g>
    </g>
    <g id="text_13">
     <!-- $Y_{00}$ -->
     <g transform="translate(79.871833 29.587238) scale(0.1 -0.1)">
      <defs>
       <path id="DejaVuSans-Oblique-59" d="M 403 4666 
L 1081 4666 
L 1953 2747 
L 3616 4666 
L 4325 4666 
L 2209 2222 
L 1778 0 
L 1147 0 
L 1575 2222 
L 403 4666 
z
" transform="scale(0.015625)"/>
      </defs>
      <use xlink:href="#DejaVuSans-Oblique-59" transform="translate(0 0.09375)"/>
      <use xlink:href="#DejaVuSans-30" transform="translate(61.083984 -16.3125) scale(0.7)"/>
      <use xlink:href="#DejaVuSans-30" transform="translate(105.620117 -16.3125) scale(0.7)"/>
     </g>
    </g>
    <g id="line2d_78">
     <g>
      <use xlink:href="#mdb72a3ae88" x="61.871833" y="40.765363" style="fill: #69bbac; stroke: #000000"/>
     </g>
    </g>
    <g id="text_14">
     <!-- $Y_{20}$ -->
     <g transform="translate(79.871833 44.265363) scale(0.1 -0.1)">
      <use xlink:href="#DejaVuSans-Oblique-59" transform="translate(0 0.09375)"/>
      <use xlink:href="#DejaVuSans-32" transform="translate(61.083984 -16.3125) scale(0.7)"/>
      <use xlink:href="#DejaVuSans-30" transform="translate(105.620117 -16.3125) scale(0.7)"/>
     </g>
    </g>
    <g id="line2d_79">
     <g>
      <use xlink:href="#m245dacb774" x="61.871833" y="55.443488" style="fill: #adad5b; stroke: #000000"/>
     </g>
    </g>
    <g id="text_15">
     <!-- $Y_{44}$ -->
     <g transform="translate(79.871833 58.943488) scale(0.1 -0.1)">
      <defs>
       <path id="DejaVuSans-34" d="M 2419 4116 
L 825 1625 
L 2419 1625 
L 2419 4116 
z
M 2253 4666 
L 3047 4666 
L 3047 1625 
L 3713 1625 
L 3713 1100 
L 3047 1100 
L 3047 0 
L 2419 0 
L 2419 1100 
L 313 1100 
L 313 1709 
L 2253 4666 
z
" transform="scale(0.015625)"/>
      </defs>
      <use xlink:href="#DejaVuSans-Oblique-59" transform="translate(0 0.09375)"/>
      <use xlink:href="#DejaVuSans-34" transform="translate(61.083984 -16.3125) scale(0.7)"/>
      <use xlink:href="#DejaVuSans-34" transform="translate(105.620117 -16.3125) scale(0.7)"/>
     </g>
    </g>
    <g id="line2d_80">
     <g>
      <use xlink:href="#me2fc671668" x="61.871833" y="70.121612" style="fill: #e3d69b; stroke: #000000"/>
     </g>
    </g>
    <g id="text_16">
     <!-- $Y_{40}$ -->
     <g transform="translate(79.871833 73.621612) scale(0.1 -0.1)">
      <use xlink:href="#DejaVuSans-Oblique-59" transform="translate(0 0.09375)"/>
      <use xlink:href="#DejaVuSans-34" transform="translate(61.083984 -16.3125) scale(0.7)"/>
      <use xlink:href="#DejaVuSans-30" transform="translate(105.620117 -16.3125) scale(0.7)"/>
     </g>
    </g>
   </g>
  </g>
 </g>
 <defs>
  <clipPath id="p7a692e6e7e">
   <rect x="42.871833" y="12.9888" width="376.816323" height="86.28224"/>
  </clipPath>
 </defs>
</svg>
